<svg width="66" height="88" viewBox="0 0 66 88" fill="none" xmlns="http://www.w3.org/2000/svg">
<path d="M11.0067 75.664L11.0307 73.792L11.2467 63.76C11.2467 63.568 11.3507 63.416 11.5587 63.304C11.7667 63.192 12.0307 63.136 12.3507 63.136C13.1187 63.136 13.5027 63.408 13.5027 63.952C13.5027 64.128 13.4067 65.472 13.2147 67.984C13.0387 70.496 12.9507 72 12.9507 72.496C12.9507 72.496 12.9507 73.344 12.9507 75.04C12.9507 76.24 13.0307 76.896 13.1907 77.008C13.4307 77.088 13.7107 77.128 14.0307 77.128L17.4867 76.888C18.2387 76.888 18.6147 77.16 18.6147 77.704C18.6147 78.136 18.4067 78.456 17.9907 78.664C17.5907 78.856 17.1907 78.968 16.7907 79C16.3907 79.016 15.9027 79.024 15.3267 79.024C12.8147 79.024 11.4547 78.944 11.2467 78.784C11.1347 78.688 11.0707 78.328 11.0547 77.704C11.0387 77.064 11.0227 76.616 11.0067 76.36C11.0067 76.104 11.0067 75.872 11.0067 75.664ZM21.9124 73.6L21.9604 76.744C21.9604 77.16 21.9524 77.384 21.9364 77.416L26.0884 77.344C26.5524 77.392 26.7844 77.592 26.7844 77.944C26.7844 78.616 26.4724 78.952 25.8484 78.952L21.1444 79C20.8564 79 20.6404 78.904 20.4964 78.712C20.3684 78.504 20.2964 78.288 20.2804 78.064C20.2644 77.84 20.2564 77.592 20.2564 77.32V73.336C20.0484 73.224 19.9444 73.056 19.9444 72.832C19.9444 72.608 20.0324 72.408 20.2084 72.232C20.1604 70.984 20.1364 69.848 20.1364 68.824C20.1364 68.232 20.4964 67.928 21.2164 67.912C21.4084 67.912 21.6324 67.912 21.8884 67.912L26.0884 67.984H26.1124C26.6244 68.048 26.8804 68.288 26.8804 68.704C26.8804 69.024 26.7844 69.24 26.5924 69.352C26.1764 69.576 25.1764 69.688 23.5924 69.688C23.0004 69.688 22.4084 69.664 21.8164 69.616C21.8164 71.056 21.8244 71.864 21.8404 72.04C22.4644 72.056 23.6884 72.064 25.5124 72.064C26.0084 72.128 26.2564 72.352 26.2564 72.736C26.2564 72.928 26.1764 73.112 26.0164 73.288C25.8564 73.464 25.6804 73.568 25.4884 73.6C25.3124 73.616 24.9204 73.624 24.3124 73.624C23.7204 73.624 22.9204 73.616 21.9124 73.6ZM37.8776 68.68C37.8776 68.84 37.7976 69.088 37.6376 69.424L37.2056 70.336C36.8856 71.024 36.5096 72.08 36.0776 73.504C35.6616 74.928 35.1416 76.48 34.5176 78.16C34.3096 78.72 33.9896 79 33.5576 79C33.2376 79 32.8936 78.544 32.5256 77.632C31.5656 75.28 30.4936 73.008 29.3096 70.816C29.1976 70.608 29.1096 70.448 29.0456 70.336C28.9816 70.208 28.9176 70.096 28.8536 70C28.7896 69.888 28.7416 69.808 28.7096 69.76C28.6936 69.696 28.6776 69.648 28.6616 69.616C28.6456 69.568 28.6296 69.52 28.6136 69.472C28.6136 69.424 28.6136 69.384 28.6136 69.352V69.208C28.6136 69.016 28.7176 68.824 28.9256 68.632C29.1496 68.44 29.3656 68.344 29.5736 68.344C29.7976 68.344 29.9816 68.4 30.1256 68.512C30.2696 68.624 30.4136 68.808 30.5576 69.064C30.7016 69.304 30.8296 69.544 30.9416 69.784C31.3576 70.696 31.6856 71.4 31.9256 71.896C32.1656 72.392 32.3816 72.864 32.5736 73.312C32.7816 73.76 32.9736 74.224 33.1496 74.704C33.3416 75.184 33.4696 75.496 33.5336 75.64C33.6456 75.24 33.9896 74.224 34.5656 72.592C35.1576 70.96 35.5736 69.864 35.8136 69.304C36.2136 68.376 36.6136 67.912 37.0136 67.912C37.0936 67.912 37.1736 67.928 37.2536 67.96C37.6696 68.104 37.8776 68.344 37.8776 68.68ZM41.5086 73.6L41.5566 76.744C41.5566 77.16 41.5486 77.384 41.5326 77.416L45.6846 77.344C46.1486 77.392 46.3806 77.592 46.3806 77.944C46.3806 78.616 46.0686 78.952 45.4446 78.952L40.7406 79C40.4526 79 40.2366 78.904 40.0926 78.712C39.9646 78.504 39.8926 78.288 39.8766 78.064C39.8606 77.84 39.8526 77.592 39.8526 77.32V73.336C39.6446 73.224 39.5406 73.056 39.5406 72.832C39.5406 72.608 39.6286 72.408 39.8046 72.232C39.7566 70.984 39.7326 69.848 39.7326 68.824C39.7326 68.232 40.0926 67.928 40.8126 67.912C41.0046 67.912 41.2286 67.912 41.4846 67.912L45.6846 67.984H45.7086C46.2206 68.048 46.4766 68.288 46.4766 68.704C46.4766 69.024 46.3806 69.24 46.1886 69.352C45.7726 69.576 44.7726 69.688 43.1886 69.688C42.5966 69.688 42.0046 69.664 41.4126 69.616C41.4126 71.056 41.4206 71.864 41.4366 72.04C42.0606 72.056 43.2846 72.064 45.1086 72.064C45.6046 72.128 45.8526 72.352 45.8526 72.736C45.8526 72.928 45.7726 73.112 45.6126 73.288C45.4526 73.464 45.2766 73.568 45.0846 73.6C44.9086 73.616 44.5166 73.624 43.9086 73.624C43.3166 73.624 42.5166 73.616 41.5086 73.6ZM51.2338 79.024L48.9538 79C48.5538 79 48.3298 78.88 48.2818 78.64C48.1858 77.968 48.1378 76.92 48.1378 75.496L48.3058 68.536C48.3058 68.136 48.6098 67.936 49.2178 67.936C49.5218 67.936 49.7698 68.008 49.9618 68.152C50.1538 68.296 50.2498 68.496 50.2498 68.752C50.2178 69.424 50.1298 70.352 49.9858 71.536C49.8098 73.088 49.7218 74.224 49.7218 74.944C49.7218 75.648 49.7458 76.496 49.7938 77.488L53.3458 77.272C53.8738 77.272 54.1378 77.544 54.1378 78.088C54.1378 78.536 53.9698 78.792 53.6338 78.856C52.9138 78.968 52.1138 79.024 51.2338 79.024Z" fill="black"/>
<path d="M10.948 46.5216C9.87616 44.4461 9.68471 42.0822 9.57948 39.7886C9.45152 36.9431 9.2146 34.1013 9.18997 31.2542C9.18173 28.2179 8.87137 25.1899 9.03382 22.1581C9.14919 20.045 8.69238 17.7661 9.73594 15.8153C10.7023 14.4101 12.4762 13.9324 14.0454 13.5289C14.5625 13.3902 15.0875 13.2549 15.6023 13.1106C19.8004 11.827 24.1877 11.3362 28.5334 10.8553C33.8019 10.7867 39.0514 10.3734 44.3189 10.253C45.3825 10.2314 46.4543 10.1153 47.5231 10.2222C48.355 10.3051 49.0313 10.8668 49.7227 11.2855C50.7391 11.9022 51.3103 12.988 52.0652 13.8644C53.0554 15.222 54.6318 16.2701 54.9141 18.0242C55.3995 19.8483 55.4826 21.7397 55.6219 23.6089C55.6868 25.5531 55.9292 27.486 56.002 29.4337C56.1938 33.265 55.9375 37.097 55.8441 40.9299C55.6732 43.1824 55.6446 45.5157 54.7398 47.6205C54.4135 48.408 53.702 48.9103 53.0432 49.3984C51.8959 50.2291 50.4509 50.4206 49.1532 50.9193C47.2707 51.616 45.2589 51.7375 43.2914 52.0046C41.2004 52.2877 39.088 52.2859 37.0003 52.5612C35.2397 52.7924 33.4584 52.823 31.6892 52.9336C27.2865 53.3522 22.7991 53.5563 18.4176 52.7598C17.5129 52.6078 16.4998 52.642 15.736 52.0562C14.5543 51.185 13.6601 50.0049 12.777 48.8529C12.224 48.0274 11.394 47.4219 10.948 46.5216ZM13.7785 47.6688C16.0625 48.3857 18.5077 48.2759 20.8763 48.2681C25.7373 48.1384 30.6073 48.3444 35.4641 48.1381C38.7023 48.0287 41.9615 47.9893 45.1532 47.3503C47.0941 46.9829 49.2324 46.6549 50.6853 45.1819C51.234 44.6785 51.4186 43.9274 51.5099 43.2196C51.6799 41.8546 51.6825 40.4773 51.6953 39.109C51.6741 35.6278 52.0402 32.1569 51.9156 28.6774C51.8079 24.565 51.7622 20.3955 50.686 16.3976C50.2816 14.8612 49.8945 13.1876 48.7036 12.0461C48.1544 11.4278 47.2718 11.3975 46.5094 11.359C41.4873 11.3109 36.446 11.2964 31.4597 11.8994C27.9104 12.3402 24.3184 12.4587 20.7997 13.1418C18.2635 13.5483 15.8336 14.3891 13.3616 15.0574C12.3767 15.3609 11.3418 15.8343 10.7569 16.7237C10.2216 17.8871 10.2045 19.2114 10.2224 20.4762C10.2516 22.3628 10.0371 24.241 10.1371 26.1258C10.3076 29.6394 10.2411 33.1617 10.507 36.6703C10.7026 39.1435 10.6419 41.6591 11.2442 44.0762C11.6457 45.4898 12.2146 47.1962 13.7785 47.6688Z" fill="#7345E4"/>
<path d="M33.5675 47.7443C32.8184 47.1135 32.2026 46.2932 31.9522 45.3287C32.5717 46.0759 33.1405 46.8756 33.5675 47.7443Z" fill="#7345E4"/>
<path d="M34.6981 46.9202C34.134 46.6926 33.6649 46.2775 33.3309 45.7765C33.9322 45.9503 34.3709 46.4035 34.6981 46.9202Z" fill="#7345E4"/>
<path d="M49.3748 42.3201C49.0314 41.614 48.7611 40.8792 48.4684 40.1533C48.2158 39.4962 47.8577 38.8352 47.9669 38.1072C48.5551 39.4668 49.2825 40.8171 49.3748 42.3201Z" fill="#7345E4"/>
<path d="M49.4022 37.4953L49.5403 37.4996C49.2221 36.6597 48.7352 35.8864 48.5239 35.0044C49.4995 36.0285 49.9223 37.4468 50.3342 38.7715C50.0662 38.6684 49.974 37.4459 49.6265 37.883C49.6281 38.7108 50.1589 39.4472 50.1839 40.2852C49.5444 38.8611 48.5554 37.4901 48.4578 35.8914C48.8424 36.3724 48.836 37.2294 49.4022 37.4953Z" fill="#7345E4"/>
<path d="M50.7312 28.277C49.8782 26.8719 48.9498 25.4899 48.3815 23.9333C49.3989 25.228 50.2123 26.714 50.7312 28.277Z" fill="#7345E4"/>
<path d="M47.7068 20.7227C48.7082 22.0758 49.5385 23.5552 50.0785 25.1555C49.1942 23.7366 48.1322 22.3617 47.7068 20.7227Z" fill="#7345E4"/>
<path d="M49.9907 23.038C49.0561 21.5411 47.9797 20.1132 47.2847 18.4827C48.6473 19.6477 49.4127 21.3744 49.9907 23.038Z" fill="#7345E4"/>
<path d="M47.9231 16.7567C48.5798 17.7958 49.1677 18.9076 49.4958 20.1023C48.6586 18.6713 47.7134 17.296 46.9821 15.8038C47.354 16.055 47.6853 16.3679 47.9231 16.7567Z" fill="#7345E4"/>
<path d="M32.5819 36.872C32.5819 37.656 32.1579 38.048 31.3099 38.048C31.1339 38.048 30.9739 37.976 30.8299 37.832C30.7019 37.672 30.6379 37.432 30.6379 37.112L30.5659 31.016C30.5659 29 30.5899 27.104 30.6379 25.328C30.0939 25.808 29.5659 26.36 29.0539 26.984C28.5419 27.608 28.1899 28.024 27.9979 28.232C27.8219 28.44 27.5819 28.648 27.2779 28.856C26.9899 29.048 26.7179 29.144 26.4619 29.144C26.2059 29.144 25.9979 29.056 25.8379 28.88C25.6939 28.704 25.6219 28.488 25.6219 28.232C25.6219 27.976 25.8059 27.632 26.1739 27.2C26.5579 26.752 27.9499 25.256 30.3499 22.712C30.7179 22.376 31.1819 22.208 31.7419 22.208C32.0139 22.208 32.2379 22.288 32.4139 22.448C32.5899 22.608 32.6779 22.792 32.6779 23L32.5099 29.456L32.5819 36.872Z" fill="#7345E4"/>
</svg>
