<svg width="66" height="88" viewBox="0 0 66 88" fill="none" xmlns="http://www.w3.org/2000/svg">
<path d="M11.5065 75.664L11.5305 73.792L11.7465 63.76C11.7465 63.568 11.8505 63.416 12.0585 63.304C12.2665 63.192 12.5305 63.136 12.8505 63.136C13.6185 63.136 14.0025 63.408 14.0025 63.952C14.0025 64.128 13.9065 65.472 13.7145 67.984C13.5385 70.496 13.4505 72 13.4505 72.496C13.4505 72.496 13.4505 73.344 13.4505 75.04C13.4505 76.24 13.5305 76.896 13.6905 77.008C13.9305 77.088 14.2105 77.128 14.5305 77.128L17.9865 76.888C18.7385 76.888 19.1145 77.16 19.1145 77.704C19.1145 78.136 18.9065 78.456 18.4905 78.664C18.0905 78.856 17.6905 78.968 17.2905 79C16.8905 79.016 16.4025 79.024 15.8265 79.024C13.3145 79.024 11.9545 78.944 11.7465 78.784C11.6345 78.688 11.5705 78.328 11.5545 77.704C11.5385 77.064 11.5225 76.616 11.5065 76.36C11.5065 76.104 11.5065 75.872 11.5065 75.664ZM22.4122 73.6L22.4602 76.744C22.4602 77.16 22.4522 77.384 22.4362 77.416L26.5882 77.344C27.0522 77.392 27.2842 77.592 27.2842 77.944C27.2842 78.616 26.9722 78.952 26.3482 78.952L21.6442 79C21.3562 79 21.1402 78.904 20.9962 78.712C20.8682 78.504 20.7962 78.288 20.7802 78.064C20.7642 77.84 20.7562 77.592 20.7562 77.32V73.336C20.5482 73.224 20.4442 73.056 20.4442 72.832C20.4442 72.608 20.5322 72.408 20.7082 72.232C20.6602 70.984 20.6362 69.848 20.6362 68.824C20.6362 68.232 20.9962 67.928 21.7162 67.912C21.9082 67.912 22.1322 67.912 22.3882 67.912L26.5882 67.984H26.6122C27.1242 68.048 27.3802 68.288 27.3802 68.704C27.3802 69.024 27.2842 69.24 27.0922 69.352C26.6762 69.576 25.6762 69.688 24.0922 69.688C23.5002 69.688 22.9082 69.664 22.3162 69.616C22.3162 71.056 22.3242 71.864 22.3402 72.04C22.9642 72.056 24.1882 72.064 26.0122 72.064C26.5082 72.128 26.7562 72.352 26.7562 72.736C26.7562 72.928 26.6762 73.112 26.5162 73.288C26.3562 73.464 26.1802 73.568 25.9882 73.6C25.8122 73.616 25.4202 73.624 24.8122 73.624C24.2202 73.624 23.4202 73.616 22.4122 73.6ZM38.3774 68.68C38.3774 68.84 38.2974 69.088 38.1374 69.424L37.7054 70.336C37.3854 71.024 37.0094 72.08 36.5774 73.504C36.1614 74.928 35.6414 76.48 35.0174 78.16C34.8094 78.72 34.4894 79 34.0574 79C33.7374 79 33.3934 78.544 33.0254 77.632C32.0654 75.28 30.9934 73.008 29.8094 70.816C29.6974 70.608 29.6094 70.448 29.5454 70.336C29.4814 70.208 29.4174 70.096 29.3534 70C29.2894 69.888 29.2414 69.808 29.2094 69.76C29.1934 69.696 29.1774 69.648 29.1614 69.616C29.1454 69.568 29.1294 69.52 29.1134 69.472C29.1134 69.424 29.1134 69.384 29.1134 69.352V69.208C29.1134 69.016 29.2174 68.824 29.4254 68.632C29.6494 68.44 29.8654 68.344 30.0734 68.344C30.2974 68.344 30.4814 68.4 30.6254 68.512C30.7694 68.624 30.9134 68.808 31.0574 69.064C31.2014 69.304 31.3294 69.544 31.4414 69.784C31.8574 70.696 32.1854 71.4 32.4254 71.896C32.6654 72.392 32.8814 72.864 33.0734 73.312C33.2814 73.76 33.4734 74.224 33.6494 74.704C33.8414 75.184 33.9694 75.496 34.0334 75.64C34.1454 75.24 34.4894 74.224 35.0654 72.592C35.6574 70.96 36.0734 69.864 36.3134 69.304C36.7134 68.376 37.1134 67.912 37.5134 67.912C37.5934 67.912 37.6734 67.928 37.7534 67.96C38.1694 68.104 38.3774 68.344 38.3774 68.68ZM42.0085 73.6L42.0565 76.744C42.0565 77.16 42.0485 77.384 42.0325 77.416L46.1845 77.344C46.6485 77.392 46.8805 77.592 46.8805 77.944C46.8805 78.616 46.5685 78.952 45.9445 78.952L41.2405 79C40.9525 79 40.7365 78.904 40.5925 78.712C40.4645 78.504 40.3925 78.288 40.3765 78.064C40.3605 77.84 40.3525 77.592 40.3525 77.32V73.336C40.1445 73.224 40.0405 73.056 40.0405 72.832C40.0405 72.608 40.1285 72.408 40.3045 72.232C40.2565 70.984 40.2325 69.848 40.2325 68.824C40.2325 68.232 40.5925 67.928 41.3125 67.912C41.5045 67.912 41.7285 67.912 41.9845 67.912L46.1845 67.984H46.2085C46.7205 68.048 46.9765 68.288 46.9765 68.704C46.9765 69.024 46.8805 69.24 46.6885 69.352C46.2725 69.576 45.2725 69.688 43.6885 69.688C43.0965 69.688 42.5045 69.664 41.9125 69.616C41.9125 71.056 41.9205 71.864 41.9365 72.04C42.5605 72.056 43.7845 72.064 45.6085 72.064C46.1045 72.128 46.3525 72.352 46.3525 72.736C46.3525 72.928 46.2725 73.112 46.1125 73.288C45.9525 73.464 45.7765 73.568 45.5845 73.6C45.4085 73.616 45.0165 73.624 44.4085 73.624C43.8165 73.624 43.0165 73.616 42.0085 73.6ZM51.7337 79.024L49.4537 79C49.0537 79 48.8297 78.88 48.7817 78.64C48.6857 77.968 48.6377 76.92 48.6377 75.496L48.8057 68.536C48.8057 68.136 49.1097 67.936 49.7177 67.936C50.0217 67.936 50.2697 68.008 50.4617 68.152C50.6537 68.296 50.7497 68.496 50.7497 68.752C50.7177 69.424 50.6297 70.352 50.4857 71.536C50.3097 73.088 50.2217 74.224 50.2217 74.944C50.2217 75.648 50.2457 76.496 50.2937 77.488L53.8457 77.272C54.3737 77.272 54.6377 77.544 54.6377 78.088C54.6377 78.536 54.4697 78.792 54.1337 78.856C53.4137 78.968 52.6137 79.024 51.7337 79.024Z" fill="#828282"/>
<path d="M11.4479 46.5216C10.376 44.4461 10.1846 42.0822 10.0794 39.7886C9.9514 36.9431 9.71448 34.1013 9.68985 31.2542C9.68161 28.2179 9.37125 25.1899 9.5337 22.1581C9.64907 20.045 9.19226 17.7661 10.2358 15.8153C11.2022 14.4101 12.9761 13.9324 14.5453 13.5289C15.0624 13.3902 15.5873 13.2549 16.1022 13.1106C20.3003 11.827 24.6876 11.3362 29.0333 10.8553C34.3017 10.7867 39.5513 10.3734 44.8188 10.253C45.8824 10.2314 46.9542 10.1153 48.023 10.2222C48.8549 10.3051 49.5312 10.8668 50.2226 11.2855C51.239 11.9022 51.8101 12.988 52.5651 13.8644C53.5552 15.222 55.1316 16.2701 55.414 18.0242C55.8994 19.8483 55.9824 21.7397 56.1218 23.6089C56.1867 25.5531 56.4291 27.486 56.5019 29.4337C56.6937 33.265 56.4374 37.097 56.344 40.9299C56.1731 43.1824 56.1445 45.5157 55.2397 47.6205C54.9134 48.408 54.2018 48.9103 53.5431 49.3984C52.3958 50.2291 50.9508 50.4206 49.653 50.9193C47.7706 51.616 45.7587 51.7375 43.7913 52.0046C41.7003 52.2877 39.5878 52.2859 37.5002 52.5612C35.7396 52.7924 33.9583 52.823 32.1891 52.9336C27.7864 53.3522 23.299 53.5563 18.9175 52.7598C18.0128 52.6078 16.9997 52.642 16.2359 52.0562C15.0542 51.185 14.16 50.0049 13.2769 48.8529C12.7239 48.0274 11.8939 47.4219 11.4479 46.5216ZM14.2784 47.6688C16.5623 48.3857 19.0076 48.2759 21.3762 48.2681C26.2372 48.1384 31.1072 48.3444 35.964 48.1381C39.2021 48.0287 42.4614 47.9893 45.6531 47.3503C47.594 46.9829 49.7323 46.6549 51.1852 45.1819C51.7339 44.6785 51.9185 43.9274 52.0098 43.2196C52.1797 41.8546 52.1824 40.4773 52.1952 39.109C52.1739 35.6278 52.5401 32.1569 52.4155 28.6774C52.3078 24.565 52.2621 20.3955 51.1859 16.3976C50.7815 14.8612 50.3944 13.1876 49.2035 12.0461C48.6543 11.4278 47.7717 11.3975 47.0093 11.359C41.9872 11.3109 36.9458 11.2964 31.9596 11.8994C28.4103 12.3402 24.8183 12.4587 21.2996 13.1418C18.7634 13.5483 16.3335 14.3891 13.8615 15.0574C12.8766 15.3609 11.8417 15.8343 11.2568 16.7237C10.7214 17.8871 10.7043 19.2114 10.7223 20.4762C10.7515 22.3628 10.537 24.241 10.6369 26.1258C10.8074 29.6394 10.7409 33.1617 11.0069 36.6703C11.2025 39.1435 11.1418 41.6591 11.7441 44.0762C12.1456 45.4898 12.7145 47.1962 14.2784 47.6688Z" fill="#828282"/>
<path d="M34.0674 47.7443C33.3184 47.1135 32.7025 46.2932 32.4521 45.3287C33.0716 46.0759 33.6404 46.8756 34.0674 47.7443Z" fill="#828282"/>
<path d="M35.1979 46.9202C34.6338 46.6926 34.1647 46.2775 33.8307 45.7765C34.4321 45.9503 34.8707 46.4035 35.1979 46.9202Z" fill="#828282"/>
<path d="M49.8747 42.3201C49.5313 41.614 49.261 40.8792 48.9683 40.1533C48.7157 39.4962 48.3575 38.8352 48.4668 38.1072C49.0549 39.4668 49.7823 40.8171 49.8747 42.3201Z" fill="#828282"/>
<path d="M49.902 37.4953L50.0402 37.4996C49.722 36.6597 49.2351 35.8864 49.0237 35.0044C49.9994 36.0285 50.4222 37.4468 50.8341 38.7715C50.5661 38.6684 50.4739 37.4459 50.1264 37.883C50.1279 38.7108 50.6587 39.4472 50.6838 40.2852C50.0443 38.8611 49.0553 37.4901 48.9577 35.8914C49.3423 36.3724 49.3359 37.2294 49.902 37.4953Z" fill="#828282"/>
<path d="M51.231 28.277C50.378 26.8719 49.4497 25.4899 48.8814 23.9333C49.8988 25.228 50.7122 26.714 51.231 28.277Z" fill="#828282"/>
<path d="M48.2067 20.7227C49.2081 22.0758 50.0383 23.5552 50.5784 25.1555C49.694 23.7366 48.632 22.3617 48.2067 20.7227Z" fill="#828282"/>
<path d="M50.4906 23.038C49.5559 21.5411 48.4795 20.1132 47.7846 18.4827C49.1472 19.6477 49.9125 21.3744 50.4906 23.038Z" fill="#828282"/>
<path d="M48.423 16.7567C49.0797 17.7958 49.6675 18.9076 49.9957 20.1023C49.1585 18.6713 48.2133 17.296 47.4819 15.8038C47.8539 16.055 48.1852 16.3679 48.423 16.7567Z" fill="#828282"/>
<path d="M32.5297 38.048L29.0017 38C28.8417 38 28.6817 38 28.5217 38C26.9377 38 26.1457 37.696 26.1457 37.088C26.1457 36.656 26.2257 36.248 26.3857 35.864C26.5457 35.48 26.6977 35.192 26.8417 35C26.9857 34.808 27.2737 34.488 27.7057 34.04C28.1377 33.592 28.4497 33.256 28.6417 33.032C28.8337 32.808 29.4097 32.24 30.3697 31.328C31.3457 30.416 32.0737 29.592 32.5537 28.856C33.0497 28.12 33.2977 27.344 33.2977 26.528C33.2977 25.264 32.7937 24.448 31.7857 24.08C31.4977 23.984 31.2017 23.936 30.8977 23.936C30.2097 23.936 29.5217 24.232 28.8337 24.824C28.5617 25.08 28.2737 25.208 27.9697 25.208C27.8737 25.208 27.7857 25.2 27.7057 25.184C27.3057 25.088 27.1057 24.808 27.1057 24.344C27.1057 23.72 27.5457 23.2 28.4257 22.784C29.3697 22.336 30.3937 22.112 31.4977 22.112C32.6177 22.112 33.5297 22.52 34.2337 23.336C34.9537 24.136 35.3137 25.136 35.3137 26.336C35.3137 28.048 34.7857 29.52 33.7297 30.752C33.2337 31.328 32.7297 31.864 32.2177 32.36C30.6017 33.896 29.5217 35.064 28.9777 35.864C29.6977 35.912 30.5857 35.936 31.6417 35.936C32.7137 35.936 34.0337 35.872 35.6017 35.744C35.8417 35.792 36.0337 35.904 36.1777 36.08C36.3377 36.24 36.4177 36.424 36.4177 36.632C36.4177 37.176 36.1297 37.552 35.5537 37.76C34.9777 37.952 33.9697 38.048 32.5297 38.048Z" fill="#828282"/>
</svg>
