<svg width="66" height="88" viewBox="0 0 66 88" fill="none" xmlns="http://www.w3.org/2000/svg">
<path d="M11.01 75.664L11.034 73.792L11.25 63.76C11.25 63.568 11.354 63.416 11.562 63.304C11.77 63.192 12.034 63.136 12.354 63.136C13.122 63.136 13.506 63.408 13.506 63.952C13.506 64.128 13.41 65.472 13.218 67.984C13.042 70.496 12.954 72 12.954 72.496C12.954 72.496 12.954 73.344 12.954 75.04C12.954 76.24 13.034 76.896 13.194 77.008C13.434 77.088 13.714 77.128 14.034 77.128L17.49 76.888C18.242 76.888 18.618 77.16 18.618 77.704C18.618 78.136 18.41 78.456 17.994 78.664C17.594 78.856 17.194 78.968 16.794 79C16.394 79.016 15.906 79.024 15.33 79.024C12.818 79.024 11.458 78.944 11.25 78.784C11.138 78.688 11.074 78.328 11.058 77.704C11.042 77.064 11.026 76.616 11.01 76.36C11.01 76.104 11.01 75.872 11.01 75.664ZM21.9157 73.6L21.9637 76.744C21.9637 77.16 21.9557 77.384 21.9397 77.416L26.0917 77.344C26.5557 77.392 26.7877 77.592 26.7877 77.944C26.7877 78.616 26.4757 78.952 25.8517 78.952L21.1477 79C20.8597 79 20.6437 78.904 20.4997 78.712C20.3717 78.504 20.2997 78.288 20.2837 78.064C20.2677 77.84 20.2597 77.592 20.2597 77.32V73.336C20.0517 73.224 19.9477 73.056 19.9477 72.832C19.9477 72.608 20.0357 72.408 20.2117 72.232C20.1637 70.984 20.1397 69.848 20.1397 68.824C20.1397 68.232 20.4997 67.928 21.2197 67.912C21.4117 67.912 21.6357 67.912 21.8917 67.912L26.0917 67.984H26.1157C26.6277 68.048 26.8837 68.288 26.8837 68.704C26.8837 69.024 26.7877 69.24 26.5957 69.352C26.1797 69.576 25.1797 69.688 23.5957 69.688C23.0037 69.688 22.4117 69.664 21.8197 69.616C21.8197 71.056 21.8277 71.864 21.8437 72.04C22.4677 72.056 23.6917 72.064 25.5157 72.064C26.0117 72.128 26.2597 72.352 26.2597 72.736C26.2597 72.928 26.1797 73.112 26.0197 73.288C25.8597 73.464 25.6837 73.568 25.4917 73.6C25.3157 73.616 24.9237 73.624 24.3157 73.624C23.7237 73.624 22.9237 73.616 21.9157 73.6ZM37.8809 68.68C37.8809 68.84 37.8009 69.088 37.6409 69.424L37.2089 70.336C36.8889 71.024 36.5129 72.08 36.0809 73.504C35.6649 74.928 35.1449 76.48 34.5209 78.16C34.3129 78.72 33.9929 79 33.5609 79C33.2409 79 32.8969 78.544 32.5289 77.632C31.5689 75.28 30.4969 73.008 29.3129 70.816C29.2009 70.608 29.1129 70.448 29.0489 70.336C28.9849 70.208 28.9209 70.096 28.8569 70C28.7929 69.888 28.7449 69.808 28.7129 69.76C28.6969 69.696 28.6809 69.648 28.6649 69.616C28.6489 69.568 28.6329 69.52 28.6169 69.472C28.6169 69.424 28.6169 69.384 28.6169 69.352V69.208C28.6169 69.016 28.7209 68.824 28.9289 68.632C29.1529 68.44 29.3689 68.344 29.5769 68.344C29.8009 68.344 29.9849 68.4 30.1289 68.512C30.2729 68.624 30.4169 68.808 30.5609 69.064C30.7049 69.304 30.8329 69.544 30.9449 69.784C31.3609 70.696 31.6889 71.4 31.9289 71.896C32.1689 72.392 32.3849 72.864 32.5769 73.312C32.7849 73.76 32.9769 74.224 33.1529 74.704C33.3449 75.184 33.4729 75.496 33.5369 75.64C33.6489 75.24 33.9929 74.224 34.5689 72.592C35.1609 70.96 35.5769 69.864 35.8169 69.304C36.2169 68.376 36.6169 67.912 37.0169 67.912C37.0969 67.912 37.1769 67.928 37.2569 67.96C37.6729 68.104 37.8809 68.344 37.8809 68.68ZM41.5119 73.6L41.5599 76.744C41.5599 77.16 41.5519 77.384 41.5359 77.416L45.6879 77.344C46.1519 77.392 46.3839 77.592 46.3839 77.944C46.3839 78.616 46.0719 78.952 45.4479 78.952L40.7439 79C40.4559 79 40.2399 78.904 40.0959 78.712C39.9679 78.504 39.8959 78.288 39.8799 78.064C39.8639 77.84 39.8559 77.592 39.8559 77.32V73.336C39.6479 73.224 39.5439 73.056 39.5439 72.832C39.5439 72.608 39.6319 72.408 39.8079 72.232C39.7599 70.984 39.7359 69.848 39.7359 68.824C39.7359 68.232 40.0959 67.928 40.8159 67.912C41.0079 67.912 41.2319 67.912 41.4879 67.912L45.6879 67.984H45.7119C46.2239 68.048 46.4799 68.288 46.4799 68.704C46.4799 69.024 46.3839 69.24 46.1919 69.352C45.7759 69.576 44.7759 69.688 43.1919 69.688C42.5999 69.688 42.0079 69.664 41.4159 69.616C41.4159 71.056 41.4239 71.864 41.4399 72.04C42.0639 72.056 43.2879 72.064 45.1119 72.064C45.6079 72.128 45.8559 72.352 45.8559 72.736C45.8559 72.928 45.7759 73.112 45.6159 73.288C45.4559 73.464 45.2799 73.568 45.0879 73.6C44.9119 73.616 44.5199 73.624 43.9119 73.624C43.3199 73.624 42.5199 73.616 41.5119 73.6ZM51.2371 79.024L48.9571 79C48.5571 79 48.3331 78.88 48.2851 78.64C48.1891 77.968 48.1411 76.92 48.1411 75.496L48.3091 68.536C48.3091 68.136 48.6131 67.936 49.2211 67.936C49.5251 67.936 49.7731 68.008 49.9651 68.152C50.1571 68.296 50.2531 68.496 50.2531 68.752C50.2211 69.424 50.1331 70.352 49.9891 71.536C49.8131 73.088 49.7251 74.224 49.7251 74.944C49.7251 75.648 49.7491 76.496 49.7971 77.488L53.3491 77.272C53.8771 77.272 54.1411 77.544 54.1411 78.088C54.1411 78.536 53.9731 78.792 53.6371 78.856C52.9171 78.968 52.1171 79.024 51.2371 79.024Z" fill="#828282"/>
<path d="M10.9514 46.5216C9.87952 44.4461 9.68807 42.0822 9.58284 39.7886C9.45487 36.9431 9.21796 34.1013 9.19332 31.2542C9.18509 28.2179 8.87473 25.1899 9.03718 22.1581C9.15255 20.045 8.69574 17.7661 9.73929 15.8153C10.7056 14.4101 12.4795 13.9324 14.0488 13.5289C14.5659 13.3902 15.0908 13.2549 15.6057 13.1106C19.8038 11.827 24.191 11.3362 28.5367 10.8553C33.8052 10.7867 39.0547 10.3734 44.3223 10.253C45.3859 10.2314 46.4577 10.1153 47.5265 10.2222C48.3584 10.3051 49.0347 10.8668 49.7261 11.2855C50.7425 11.9022 51.3136 12.988 52.0685 13.8644C53.0587 15.222 54.6351 16.2701 54.9175 18.0242C55.4028 19.8483 55.4859 21.7397 55.6252 23.6089C55.6902 25.5531 55.9326 27.486 56.0053 29.4337C56.1972 33.265 55.9409 37.097 55.8474 40.9299C55.6765 43.1824 55.648 45.5157 54.7431 47.6205C54.4169 48.408 53.7053 48.9103 53.0466 49.3984C51.8992 50.2291 50.4543 50.4206 49.1565 50.9193C47.274 51.616 45.2622 51.7375 43.2948 52.0046C41.2038 52.2877 39.0913 52.2859 37.0037 52.5612C35.243 52.7924 33.4618 52.823 31.6926 52.9336C27.2898 53.3522 22.8025 53.5563 18.4209 52.7598C17.5163 52.6078 16.5032 52.642 15.7394 52.0562C14.5577 51.185 13.6634 50.0049 12.7803 48.8529C12.2274 48.0274 11.3974 47.4219 10.9514 46.5216ZM13.7818 47.6688C16.0658 48.3857 18.5111 48.2759 20.8796 48.2681C25.7407 48.1384 30.6106 48.3444 35.4675 48.1381C38.7056 48.0287 41.9648 47.9893 45.1566 47.3503C47.0974 46.9829 49.2358 46.6549 50.6887 45.1819C51.2374 44.6785 51.422 43.9274 51.5133 43.2196C51.6832 41.8546 51.6859 40.4773 51.6987 39.109C51.6774 35.6278 52.0436 32.1569 51.919 28.6774C51.8113 24.565 51.7656 20.3955 50.6894 16.3976C50.2849 14.8612 49.8979 13.1876 48.707 12.0461C48.1578 11.4278 47.2752 11.3975 46.5128 11.359C41.4907 11.3109 36.4493 11.2964 31.463 11.8994C27.9137 12.3402 24.3218 12.4587 20.8031 13.1418C18.2669 13.5483 15.837 14.3891 13.365 15.0574C12.3801 15.3609 11.3452 15.8343 10.7603 16.7237C10.2249 17.8871 10.2078 19.2114 10.2258 20.4762C10.2549 22.3628 10.0405 24.241 10.1404 26.1258C10.3109 29.6394 10.2444 33.1617 10.5104 36.6703C10.7059 39.1435 10.6453 41.6591 11.2476 44.0762C11.6491 45.4898 12.218 47.1962 13.7818 47.6688Z" fill="#828282"/>
<path d="M33.5709 47.7443C32.8218 47.1135 32.206 46.2932 31.9556 45.3287C32.5751 46.0759 33.1439 46.8756 33.5709 47.7443Z" fill="#828282"/>
<path d="M34.7014 46.9202C34.1373 46.6926 33.6682 46.2775 33.3342 45.7765C33.9355 45.9503 34.3742 46.4035 34.7014 46.9202Z" fill="#828282"/>
<path d="M49.3781 42.3201C49.0348 41.614 48.7645 40.8792 48.4717 40.1533C48.2191 39.4962 47.861 38.8352 47.9703 38.1072C48.5584 39.4668 49.2858 40.8171 49.3781 42.3201Z" fill="#828282"/>
<path d="M49.4055 37.4953L49.5436 37.4996C49.2255 36.6597 48.7386 35.8864 48.5272 35.0044C49.5029 36.0285 49.9257 37.4468 50.3376 38.7715C50.0696 38.6684 49.9773 37.4459 49.6299 37.883C49.6314 38.7108 50.1622 39.4472 50.1873 40.2852C49.5478 38.8611 48.5588 37.4901 48.4612 35.8914C48.8458 36.3724 48.8393 37.2294 49.4055 37.4953Z" fill="#828282"/>
<path d="M50.7345 28.277C49.8815 26.8719 48.9532 25.4899 48.3849 23.9333C49.4022 25.228 50.2156 26.714 50.7345 28.277Z" fill="#828282"/>
<path d="M47.7101 20.7227C48.7116 22.0758 49.5418 23.5552 50.0819 25.1555C49.1975 23.7366 48.1355 22.3617 47.7101 20.7227Z" fill="#828282"/>
<path d="M49.9941 23.038C49.0594 21.5411 47.983 20.1132 47.2881 18.4827C48.6507 19.6477 49.416 21.3744 49.9941 23.038Z" fill="#828282"/>
<path d="M47.9265 16.7567C48.5831 17.7958 49.171 18.9076 49.4992 20.1023C48.662 18.6713 47.7168 17.296 46.9854 15.8038C47.3574 16.055 47.6887 16.3679 47.9265 16.7567Z" fill="#828282"/>
<path d="M30.2332 23.984C29.2892 23.984 28.4092 24.392 27.5932 25.208C27.3692 25.368 27.1692 25.448 26.9932 25.448C26.8172 25.448 26.6652 25.432 26.5372 25.4C26.1692 25.288 25.9852 25.032 25.9852 24.632C25.9852 23.976 26.4012 23.4 27.2332 22.904C28.0652 22.408 29.0492 22.16 30.1852 22.16C31.3212 22.16 32.2652 22.464 33.0172 23.072C33.7852 23.664 34.1692 24.44 34.1692 25.4C34.1692 26.36 34.0572 27.16 33.8332 27.8C33.6252 28.44 33.1612 28.968 32.4412 29.384C34.1372 30.024 34.9852 31.176 34.9852 32.84C34.9852 34.248 34.5612 35.464 33.7132 36.488C32.8652 37.496 31.8252 38 30.5932 38C29.3772 38 28.3052 37.712 27.3772 37.136C26.4492 36.544 25.9852 35.88 25.9852 35.144C25.9852 35 26.0652 34.832 26.2252 34.64C26.3852 34.448 26.6172 34.352 26.9212 34.352C27.2252 34.352 27.5532 34.496 27.9052 34.784C28.2572 35.056 28.6572 35.336 29.1052 35.624C29.5532 35.896 30.0572 36.032 30.6172 36.032C32.2172 36.032 33.0172 35.032 33.0172 33.032C33.0172 32.264 32.7372 31.648 32.1772 31.184C31.6332 30.704 30.8572 30.456 29.8492 30.44C29.6412 30.424 29.4812 30.408 29.3692 30.392C29.2732 30.376 29.1372 30.304 28.9612 30.176C28.8012 30.048 28.7212 29.848 28.7212 29.576C28.7212 29 29.0412 28.688 29.6812 28.64C30.3212 28.592 30.8892 28.304 31.3852 27.776C31.8972 27.248 32.1532 26.584 32.1532 25.784C32.1532 25.336 31.9612 24.928 31.5772 24.56C31.1932 24.176 30.7452 23.984 30.2332 23.984Z" fill="#828282"/>
</svg>
