<svg width="66" height="88" viewBox="0 0 66 88" fill="none" xmlns="http://www.w3.org/2000/svg">
<path d="M11.5109 75.664L11.5349 73.792L11.7509 63.76C11.7509 63.568 11.8549 63.416 12.0629 63.304C12.2709 63.192 12.5349 63.136 12.8549 63.136C13.6229 63.136 14.0069 63.408 14.0069 63.952C14.0069 64.128 13.9109 65.472 13.7189 67.984C13.5429 70.496 13.4549 72 13.4549 72.496C13.4549 72.496 13.4549 73.344 13.4549 75.04C13.4549 76.24 13.5349 76.896 13.6949 77.008C13.9349 77.088 14.2149 77.128 14.5349 77.128L17.9909 76.888C18.7429 76.888 19.1189 77.16 19.1189 77.704C19.1189 78.136 18.9109 78.456 18.4949 78.664C18.0949 78.856 17.6949 78.968 17.2949 79C16.8949 79.016 16.4069 79.024 15.8309 79.024C13.3189 79.024 11.9589 78.944 11.7509 78.784C11.6389 78.688 11.5749 78.328 11.5589 77.704C11.5429 77.064 11.5269 76.616 11.5109 76.36C11.5109 76.104 11.5109 75.872 11.5109 75.664ZM22.4165 73.6L22.4645 76.744C22.4645 77.16 22.4565 77.384 22.4405 77.416L26.5925 77.344C27.0565 77.392 27.2885 77.592 27.2885 77.944C27.2885 78.616 26.9765 78.952 26.3525 78.952L21.6485 79C21.3605 79 21.1445 78.904 21.0005 78.712C20.8725 78.504 20.8005 78.288 20.7845 78.064C20.7685 77.84 20.7605 77.592 20.7605 77.32V73.336C20.5525 73.224 20.4485 73.056 20.4485 72.832C20.4485 72.608 20.5365 72.408 20.7125 72.232C20.6645 70.984 20.6405 69.848 20.6405 68.824C20.6405 68.232 21.0005 67.928 21.7205 67.912C21.9125 67.912 22.1365 67.912 22.3925 67.912L26.5925 67.984H26.6165C27.1285 68.048 27.3845 68.288 27.3845 68.704C27.3845 69.024 27.2885 69.24 27.0965 69.352C26.6805 69.576 25.6805 69.688 24.0965 69.688C23.5045 69.688 22.9125 69.664 22.3205 69.616C22.3205 71.056 22.3285 71.864 22.3445 72.04C22.9685 72.056 24.1925 72.064 26.0165 72.064C26.5125 72.128 26.7605 72.352 26.7605 72.736C26.7605 72.928 26.6805 73.112 26.5205 73.288C26.3605 73.464 26.1845 73.568 25.9925 73.6C25.8165 73.616 25.4245 73.624 24.8165 73.624C24.2245 73.624 23.4245 73.616 22.4165 73.6ZM38.3817 68.68C38.3817 68.84 38.3017 69.088 38.1417 69.424L37.7097 70.336C37.3897 71.024 37.0137 72.08 36.5817 73.504C36.1657 74.928 35.6457 76.48 35.0217 78.16C34.8137 78.72 34.4937 79 34.0617 79C33.7417 79 33.3977 78.544 33.0297 77.632C32.0697 75.28 30.9977 73.008 29.8137 70.816C29.7017 70.608 29.6137 70.448 29.5497 70.336C29.4857 70.208 29.4217 70.096 29.3577 70C29.2937 69.888 29.2457 69.808 29.2137 69.76C29.1977 69.696 29.1817 69.648 29.1657 69.616C29.1497 69.568 29.1337 69.52 29.1177 69.472C29.1177 69.424 29.1177 69.384 29.1177 69.352V69.208C29.1177 69.016 29.2217 68.824 29.4297 68.632C29.6537 68.44 29.8697 68.344 30.0777 68.344C30.3017 68.344 30.4857 68.4 30.6297 68.512C30.7737 68.624 30.9177 68.808 31.0617 69.064C31.2057 69.304 31.3337 69.544 31.4457 69.784C31.8617 70.696 32.1897 71.4 32.4297 71.896C32.6697 72.392 32.8857 72.864 33.0777 73.312C33.2857 73.76 33.4777 74.224 33.6537 74.704C33.8457 75.184 33.9737 75.496 34.0377 75.64C34.1497 75.24 34.4937 74.224 35.0697 72.592C35.6617 70.96 36.0777 69.864 36.3177 69.304C36.7177 68.376 37.1177 67.912 37.5177 67.912C37.5977 67.912 37.6777 67.928 37.7577 67.96C38.1737 68.104 38.3817 68.344 38.3817 68.68ZM42.0128 73.6L42.0608 76.744C42.0608 77.16 42.0528 77.384 42.0368 77.416L46.1888 77.344C46.6528 77.392 46.8848 77.592 46.8848 77.944C46.8848 78.616 46.5728 78.952 45.9488 78.952L41.2448 79C40.9568 79 40.7408 78.904 40.5968 78.712C40.4688 78.504 40.3968 78.288 40.3808 78.064C40.3648 77.84 40.3568 77.592 40.3568 77.32V73.336C40.1488 73.224 40.0448 73.056 40.0448 72.832C40.0448 72.608 40.1328 72.408 40.3088 72.232C40.2608 70.984 40.2368 69.848 40.2368 68.824C40.2368 68.232 40.5968 67.928 41.3168 67.912C41.5088 67.912 41.7328 67.912 41.9888 67.912L46.1888 67.984H46.2128C46.7248 68.048 46.9808 68.288 46.9808 68.704C46.9808 69.024 46.8848 69.24 46.6928 69.352C46.2768 69.576 45.2768 69.688 43.6928 69.688C43.1008 69.688 42.5088 69.664 41.9168 69.616C41.9168 71.056 41.9248 71.864 41.9408 72.04C42.5648 72.056 43.7888 72.064 45.6128 72.064C46.1088 72.128 46.3568 72.352 46.3568 72.736C46.3568 72.928 46.2768 73.112 46.1168 73.288C45.9568 73.464 45.7808 73.568 45.5888 73.6C45.4128 73.616 45.0208 73.624 44.4128 73.624C43.8208 73.624 43.0208 73.616 42.0128 73.6ZM51.738 79.024L49.458 79C49.058 79 48.834 78.88 48.786 78.64C48.69 77.968 48.642 76.92 48.642 75.496L48.81 68.536C48.81 68.136 49.114 67.936 49.722 67.936C50.026 67.936 50.274 68.008 50.466 68.152C50.658 68.296 50.754 68.496 50.754 68.752C50.722 69.424 50.634 70.352 50.49 71.536C50.314 73.088 50.226 74.224 50.226 74.944C50.226 75.648 50.25 76.496 50.298 77.488L53.85 77.272C54.378 77.272 54.642 77.544 54.642 78.088C54.642 78.536 54.474 78.792 54.138 78.856C53.418 78.968 52.618 79.024 51.738 79.024Z" fill="#828282"/>
<path d="M11.4522 46.5216C10.3804 44.4461 10.1889 42.0822 10.0837 39.7886C9.95573 36.9431 9.71882 34.1013 9.69418 31.2542C9.68594 28.2179 9.37558 25.1899 9.53803 22.1581C9.6534 20.045 9.19659 17.7661 10.2401 15.8153C11.2065 14.4101 12.9804 13.9324 14.5496 13.5289C15.0667 13.3902 15.5917 13.2549 16.1065 13.1106C20.3046 11.827 24.6919 11.3362 29.0376 10.8553C34.3061 10.7867 39.5556 10.3734 44.8231 10.253C45.8867 10.2314 46.9586 10.1153 48.0273 10.2222C48.8592 10.3051 49.5355 10.8668 50.2269 11.2855C51.2434 11.9022 51.8145 12.988 52.5694 13.8644C53.5596 15.222 55.136 16.2701 55.4183 18.0242C55.9037 19.8483 55.9868 21.7397 56.1261 23.6089C56.191 25.5531 56.4334 27.486 56.5062 29.4337C56.698 33.265 56.4417 37.097 56.3483 40.9299C56.1774 43.1824 56.1488 45.5157 55.244 47.6205C54.9177 48.408 54.2062 48.9103 53.5475 49.3984C52.4001 50.2291 50.9552 50.4206 49.6574 50.9193C47.7749 51.616 45.7631 51.7375 43.7956 52.0046C41.7046 52.2877 39.5922 52.2859 37.5046 52.5612C35.7439 52.7924 33.9626 52.823 32.1934 52.9336C27.7907 53.3522 23.3034 53.5563 18.9218 52.7598C18.0172 52.6078 17.004 52.642 16.2402 52.0562C15.0585 51.185 14.1643 50.0049 13.2812 48.8529C12.7282 48.0274 11.8982 47.4219 11.4522 46.5216ZM14.2827 47.6688C16.5667 48.3857 19.0119 48.2759 21.3805 48.2681C26.2415 48.1384 31.1115 48.3444 35.9683 48.1381C39.2065 48.0287 42.4657 47.9893 45.6575 47.3503C47.5983 46.9829 49.7366 46.6549 51.1895 45.1819C51.7382 44.6785 51.9229 43.9274 52.0141 43.2196C52.1841 41.8546 52.1868 40.4773 52.1995 39.109C52.1783 35.6278 52.5444 32.1569 52.4199 28.6774C52.3121 24.565 52.2664 20.3955 51.1902 16.3976C50.7858 14.8612 50.3987 13.1876 49.2079 12.0461C48.6587 11.4278 47.776 11.3975 47.0136 11.359C41.9915 11.3109 36.9502 11.2964 31.9639 11.8994C28.4146 12.3402 24.8226 12.4587 21.3039 13.1418C18.7677 13.5483 16.3378 14.3891 13.8658 15.0574C12.881 15.3609 11.846 15.8343 11.2611 16.7237C10.7258 17.8871 10.7087 19.2114 10.7266 20.4762C10.7558 22.3628 10.5413 24.241 10.6413 26.1258C10.8118 29.6394 10.7453 33.1617 11.0112 36.6703C11.2068 39.1435 11.1462 41.6591 11.7484 44.0762C12.1499 45.4898 12.7188 47.1962 14.2827 47.6688Z" fill="#828282"/>
<path d="M34.0718 47.7443C33.3227 47.1135 32.7068 46.2932 32.4565 45.3287C33.076 46.0759 33.6447 46.8756 34.0718 47.7443Z" fill="#828282"/>
<path d="M35.2022 46.9202C34.6381 46.6926 34.1691 46.2775 33.8351 45.7765C34.4364 45.9503 34.875 46.4035 35.2022 46.9202Z" fill="#828282"/>
<path d="M49.879 42.3201C49.5356 41.614 49.2654 40.8792 48.9726 40.1533C48.72 39.4962 48.3619 38.8352 48.4712 38.1072C49.0593 39.4668 49.7867 40.8171 49.879 42.3201Z" fill="#828282"/>
<path d="M49.9064 37.4953L50.0445 37.4996C49.7263 36.6597 49.2394 35.8864 49.0281 35.0044C50.0037 36.0285 50.4265 37.4468 50.8384 38.7715C50.5704 38.6684 50.4782 37.4459 50.1307 37.883C50.1323 38.7108 50.6631 39.4472 50.6882 40.2852C50.0486 38.8611 49.0596 37.4901 48.962 35.8914C49.3466 36.3724 49.3402 37.2294 49.9064 37.4953Z" fill="#828282"/>
<path d="M51.2354 28.277C50.3824 26.8719 49.4541 25.4899 48.8857 23.9333C49.9031 25.228 50.7165 26.714 51.2354 28.277Z" fill="#828282"/>
<path d="M48.211 20.7227C49.2124 22.0758 50.0427 23.5552 50.5828 25.1555C49.6984 23.7366 48.6364 22.3617 48.211 20.7227Z" fill="#828282"/>
<path d="M50.4949 23.038C49.5603 21.5411 48.4839 20.1132 47.7889 18.4827C49.1515 19.6477 49.9169 21.3744 50.4949 23.038Z" fill="#828282"/>
<path d="M48.4274 16.7567C49.084 17.7958 49.6719 18.9076 50 20.1023C49.1628 18.6713 48.2177 17.296 47.4863 15.8038C47.8582 16.055 48.1895 16.3679 48.4274 16.7567Z" fill="#828282"/>
<path d="M31.5501 32.696C30.9741 32.792 30.1581 32.84 29.1021 32.84C28.0461 32.84 27.3261 32.664 26.9421 32.312C26.5581 31.96 26.3661 31.2 26.3661 30.032C26.3661 28.848 26.4541 27.552 26.6301 26.144C26.8061 24.736 26.9981 23.704 27.2061 23.048C27.4301 22.376 27.8621 22.04 28.5021 22.04C28.9341 22.04 29.1821 22.224 29.2461 22.592C29.2461 22.688 29.2461 22.84 29.2461 23.048C29.2461 23.256 29.1981 23.552 29.1021 23.936C28.7181 26.752 28.5261 28.76 28.5261 29.96C28.5261 30.248 28.5341 30.488 28.5501 30.68C28.8381 30.744 29.2221 30.776 29.7021 30.776C30.1981 30.776 30.8221 30.728 31.5741 30.632C31.6061 30.296 31.6221 29.848 31.6221 29.288C31.6221 28.712 31.6301 28.232 31.6461 27.848C31.6621 27.464 31.7181 27.192 31.8141 27.032C31.9101 26.872 32.1821 26.792 32.6301 26.792C33.0941 26.792 33.3821 26.872 33.4941 27.032C33.6221 27.192 33.6861 27.416 33.6861 27.704C33.6861 27.976 33.6621 28.56 33.6141 29.456C33.5661 30.336 33.5421 32.832 33.5421 36.944C33.5421 37.664 33.1901 38.024 32.4861 38.024C32.4541 38.024 32.4221 38.024 32.3901 38.024C31.7981 38.024 31.5021 37.536 31.5021 36.56L31.5021 35.24L31.5501 32.696Z" fill="#828282"/>
</svg>
