<svg width="66" height="88" viewBox="0 0 66 88" fill="none" xmlns="http://www.w3.org/2000/svg">
<path d="M11.0128 75.664L11.0368 73.792L11.2528 63.76C11.2528 63.568 11.3568 63.416 11.5648 63.304C11.7728 63.192 12.0368 63.136 12.3568 63.136C13.1248 63.136 13.5088 63.408 13.5088 63.952C13.5088 64.128 13.4128 65.472 13.2208 67.984C13.0448 70.496 12.9568 72 12.9568 72.496C12.9568 72.496 12.9568 73.344 12.9568 75.04C12.9568 76.24 13.0368 76.896 13.1968 77.008C13.4368 77.088 13.7168 77.128 14.0368 77.128L17.4928 76.888C18.2448 76.888 18.6208 77.16 18.6208 77.704C18.6208 78.136 18.4128 78.456 17.9968 78.664C17.5968 78.856 17.1968 78.968 16.7968 79C16.3968 79.016 15.9088 79.024 15.3328 79.024C12.8208 79.024 11.4608 78.944 11.2528 78.784C11.1408 78.688 11.0768 78.328 11.0608 77.704C11.0448 77.064 11.0288 76.616 11.0128 76.36C11.0128 76.104 11.0128 75.872 11.0128 75.664ZM21.9185 73.6L21.9665 76.744C21.9665 77.16 21.9585 77.384 21.9425 77.416L26.0945 77.344C26.5585 77.392 26.7905 77.592 26.7905 77.944C26.7905 78.616 26.4785 78.952 25.8545 78.952L21.1505 79C20.8625 79 20.6465 78.904 20.5025 78.712C20.3745 78.504 20.3025 78.288 20.2865 78.064C20.2705 77.84 20.2625 77.592 20.2625 77.32V73.336C20.0545 73.224 19.9505 73.056 19.9505 72.832C19.9505 72.608 20.0385 72.408 20.2145 72.232C20.1665 70.984 20.1425 69.848 20.1425 68.824C20.1425 68.232 20.5025 67.928 21.2225 67.912C21.4145 67.912 21.6385 67.912 21.8945 67.912L26.0945 67.984H26.1185C26.6305 68.048 26.8865 68.288 26.8865 68.704C26.8865 69.024 26.7905 69.24 26.5985 69.352C26.1825 69.576 25.1825 69.688 23.5985 69.688C23.0065 69.688 22.4145 69.664 21.8225 69.616C21.8225 71.056 21.8305 71.864 21.8465 72.04C22.4705 72.056 23.6945 72.064 25.5185 72.064C26.0145 72.128 26.2625 72.352 26.2625 72.736C26.2625 72.928 26.1825 73.112 26.0225 73.288C25.8625 73.464 25.6865 73.568 25.4945 73.6C25.3185 73.616 24.9265 73.624 24.3185 73.624C23.7265 73.624 22.9265 73.616 21.9185 73.6ZM37.8837 68.68C37.8837 68.84 37.8037 69.088 37.6437 69.424L37.2117 70.336C36.8917 71.024 36.5157 72.08 36.0837 73.504C35.6677 74.928 35.1477 76.48 34.5237 78.16C34.3157 78.72 33.9957 79 33.5637 79C33.2437 79 32.8997 78.544 32.5317 77.632C31.5717 75.28 30.4997 73.008 29.3157 70.816C29.2037 70.608 29.1157 70.448 29.0517 70.336C28.9877 70.208 28.9237 70.096 28.8597 70C28.7957 69.888 28.7477 69.808 28.7157 69.76C28.6997 69.696 28.6837 69.648 28.6677 69.616C28.6517 69.568 28.6357 69.52 28.6197 69.472C28.6197 69.424 28.6197 69.384 28.6197 69.352V69.208C28.6197 69.016 28.7237 68.824 28.9317 68.632C29.1557 68.44 29.3717 68.344 29.5797 68.344C29.8037 68.344 29.9877 68.4 30.1317 68.512C30.2757 68.624 30.4197 68.808 30.5637 69.064C30.7077 69.304 30.8357 69.544 30.9477 69.784C31.3637 70.696 31.6917 71.4 31.9317 71.896C32.1717 72.392 32.3877 72.864 32.5797 73.312C32.7877 73.76 32.9797 74.224 33.1557 74.704C33.3477 75.184 33.4757 75.496 33.5397 75.64C33.6517 75.24 33.9957 74.224 34.5717 72.592C35.1637 70.96 35.5797 69.864 35.8197 69.304C36.2197 68.376 36.6197 67.912 37.0197 67.912C37.0997 67.912 37.1797 67.928 37.2597 67.96C37.6757 68.104 37.8837 68.344 37.8837 68.68ZM41.5147 73.6L41.5627 76.744C41.5627 77.16 41.5547 77.384 41.5387 77.416L45.6907 77.344C46.1547 77.392 46.3867 77.592 46.3867 77.944C46.3867 78.616 46.0747 78.952 45.4507 78.952L40.7467 79C40.4587 79 40.2427 78.904 40.0987 78.712C39.9707 78.504 39.8987 78.288 39.8827 78.064C39.8667 77.84 39.8587 77.592 39.8587 77.32V73.336C39.6507 73.224 39.5467 73.056 39.5467 72.832C39.5467 72.608 39.6347 72.408 39.8107 72.232C39.7627 70.984 39.7387 69.848 39.7387 68.824C39.7387 68.232 40.0987 67.928 40.8187 67.912C41.0107 67.912 41.2347 67.912 41.4907 67.912L45.6907 67.984H45.7147C46.2267 68.048 46.4827 68.288 46.4827 68.704C46.4827 69.024 46.3867 69.24 46.1947 69.352C45.7787 69.576 44.7787 69.688 43.1947 69.688C42.6027 69.688 42.0107 69.664 41.4187 69.616C41.4187 71.056 41.4267 71.864 41.4427 72.04C42.0667 72.056 43.2907 72.064 45.1147 72.064C45.6107 72.128 45.8587 72.352 45.8587 72.736C45.8587 72.928 45.7787 73.112 45.6187 73.288C45.4587 73.464 45.2827 73.568 45.0907 73.6C44.9147 73.616 44.5227 73.624 43.9147 73.624C43.3227 73.624 42.5227 73.616 41.5147 73.6ZM51.2399 79.024L48.9599 79C48.5599 79 48.3359 78.88 48.2879 78.64C48.1919 77.968 48.1439 76.92 48.1439 75.496L48.3119 68.536C48.3119 68.136 48.6159 67.936 49.2239 67.936C49.5279 67.936 49.7759 68.008 49.9679 68.152C50.1599 68.296 50.2559 68.496 50.2559 68.752C50.2239 69.424 50.1359 70.352 49.9919 71.536C49.8159 73.088 49.7279 74.224 49.7279 74.944C49.7279 75.648 49.7519 76.496 49.7999 77.488L53.3519 77.272C53.8799 77.272 54.1439 77.544 54.1439 78.088C54.1439 78.536 53.9759 78.792 53.6399 78.856C52.9199 78.968 52.1199 79.024 51.2399 79.024Z" fill="#828282"/>
<path d="M10.9542 46.5216C9.88239 44.4461 9.69094 42.0822 9.58571 39.7886C9.45774 36.9431 9.22083 34.1013 9.19619 31.2542C9.18796 28.2179 8.87759 25.1899 9.04004 22.1581C9.15541 20.045 8.69861 17.7661 9.74216 15.8153C10.7085 14.4101 12.4824 13.9324 14.0516 13.5289C14.5687 13.3902 15.0937 13.2549 15.6086 13.1106C19.8066 11.827 24.1939 11.3362 28.5396 10.8553C33.8081 10.7867 39.0576 10.3734 44.3252 10.253C45.3888 10.2314 46.4606 10.1153 47.5293 10.2222C48.3612 10.3051 49.0375 10.8668 49.729 11.2855C50.7454 11.9022 51.3165 12.988 52.0714 13.8644C53.0616 15.222 54.638 16.2701 54.9203 18.0242C55.4057 19.8483 55.4888 21.7397 55.6281 23.6089C55.693 25.5531 55.9354 27.486 56.0082 29.4337C56.2 33.265 55.9437 37.097 55.8503 40.9299C55.6794 43.1824 55.6509 45.5157 54.746 47.6205C54.4198 48.408 53.7082 48.9103 53.0495 49.3984C51.9021 50.2291 50.4572 50.4206 49.1594 50.9193C47.2769 51.616 45.2651 51.7375 43.2977 52.0046C41.2066 52.2877 39.0942 52.2859 37.0066 52.5612C35.2459 52.7924 33.4646 52.823 31.6954 52.9336C27.2927 53.3522 22.8054 53.5563 18.4238 52.7598C17.5192 52.6078 16.5061 52.642 15.7422 52.0562C14.5605 51.185 13.6663 50.0049 12.7832 48.8529C12.2302 48.0274 11.4002 47.4219 10.9542 46.5216ZM13.7847 47.6688C16.0687 48.3857 18.514 48.2759 20.8825 48.2681C25.7435 48.1384 30.6135 48.3444 35.4703 48.1381C38.7085 48.0287 41.9677 47.9893 45.1595 47.3503C47.1003 46.9829 49.2386 46.6549 50.6915 45.1819C51.2403 44.6785 51.4249 43.9274 51.5161 43.2196C51.6861 41.8546 51.6888 40.4773 51.7015 39.109C51.6803 35.6278 52.0464 32.1569 51.9219 28.6774C51.8142 24.565 51.7684 20.3955 50.6922 16.3976C50.2878 14.8612 49.9007 13.1876 48.7099 12.0461C48.1607 11.4278 47.2781 11.3975 46.5156 11.359C41.4935 11.3109 36.4522 11.2964 31.4659 11.8994C27.9166 12.3402 24.3247 12.4587 20.8059 13.1418C18.2698 13.5483 15.8398 14.3891 13.3678 15.0574C12.383 15.3609 11.3481 15.8343 10.7631 16.7237C10.2278 17.8871 10.2107 19.2114 10.2286 20.4762C10.2578 22.3628 10.0433 24.241 10.1433 26.1258C10.3138 29.6394 10.2473 33.1617 10.5133 36.6703C10.7088 39.1435 10.6482 41.6591 11.2505 44.0762C11.652 45.4898 12.2209 47.1962 13.7847 47.6688Z" fill="#828282"/>
<path d="M33.5738 47.7443C32.8247 47.1135 32.2088 46.2932 31.9585 45.3287C32.578 46.0759 33.1468 46.8756 33.5738 47.7443Z" fill="#828282"/>
<path d="M34.7042 46.9202C34.1401 46.6926 33.6711 46.2775 33.3371 45.7765C33.9384 45.9503 34.377 46.4035 34.7042 46.9202Z" fill="#828282"/>
<path d="M49.381 42.3201C49.0376 41.614 48.7674 40.8792 48.4746 40.1533C48.222 39.4962 47.8639 38.8352 47.9732 38.1072C48.5613 39.4668 49.2887 40.8171 49.381 42.3201Z" fill="#828282"/>
<path d="M49.4084 37.4953L49.5465 37.4996C49.2283 36.6597 48.7414 35.8864 48.5301 35.0044C49.5057 36.0285 49.9285 37.4468 50.3405 38.7715C50.0724 38.6684 49.9802 37.4459 49.6327 37.883C49.6343 38.7108 50.1651 39.4472 50.1902 40.2852C49.5506 38.8611 48.5616 37.4901 48.464 35.8914C48.8486 36.3724 48.8422 37.2294 49.4084 37.4953Z" fill="#828282"/>
<path d="M50.7374 28.277C49.8844 26.8719 48.9561 25.4899 48.3878 23.9333C49.4051 25.228 50.2185 26.714 50.7374 28.277Z" fill="#828282"/>
<path d="M47.713 20.7227C48.7144 22.0758 49.5447 23.5552 50.0848 25.1555C49.2004 23.7366 48.1384 22.3617 47.713 20.7227Z" fill="#828282"/>
<path d="M49.9969 23.038C49.0623 21.5411 47.9859 20.1132 47.2909 18.4827C48.6535 19.6477 49.4189 21.3744 49.9969 23.038Z" fill="#828282"/>
<path d="M47.9294 16.7567C48.586 17.7958 49.1739 18.9076 49.502 20.1023C48.6649 18.6713 47.7197 17.296 46.9883 15.8038C47.3602 16.055 47.6915 16.3679 47.9294 16.7567Z" fill="#828282"/>
<path d="M27.9081 27.656C28.5641 27.416 29.1961 27.296 29.8041 27.296C30.4121 27.296 30.9961 27.392 31.5561 27.584C32.1321 27.776 32.6521 28.072 33.1161 28.472C33.5961 28.872 33.9801 29.424 34.2681 30.128C34.5561 30.816 34.7001 31.616 34.7001 32.528C34.7001 34.064 34.2521 35.36 33.3561 36.416C32.4601 37.472 31.4201 38 30.2361 38C29.0681 38 28.0361 37.736 27.1401 37.208C26.2601 36.664 25.8201 36.072 25.8201 35.432C25.8201 35.128 25.8521 34.904 25.9161 34.76C25.9961 34.6 26.1321 34.472 26.3241 34.376C26.5161 34.28 26.6841 34.232 26.8281 34.232C26.9881 34.232 27.1961 34.328 27.4521 34.52C27.7241 34.696 28.1001 34.952 28.5801 35.288C29.0601 35.624 29.6121 35.792 30.2361 35.792C30.8601 35.792 31.4121 35.48 31.8921 34.856C32.3721 34.216 32.6121 33.52 32.6121 32.768C32.6121 30.608 31.6441 29.528 29.7081 29.528C29.2921 29.528 28.8041 29.568 28.2441 29.648C27.7001 29.728 27.3401 29.776 27.1641 29.792C27.0041 29.808 26.7801 29.752 26.4921 29.624C26.1561 29.304 25.9881 28.288 25.9881 26.576C25.9881 24.848 26.0281 23.736 26.1081 23.24C26.1881 22.728 26.3241 22.432 26.5161 22.352C26.8521 22.208 27.8521 22.136 29.5161 22.136C31.1961 22.136 32.5401 22.296 33.5481 22.616C33.8681 22.808 34.0281 23.088 34.0281 23.456C34.0281 23.808 33.9241 24.096 33.7161 24.32C33.5241 24.544 33.3161 24.632 33.0921 24.584C31.7641 24.296 30.4281 24.152 29.0841 24.152C28.6681 24.152 28.2521 24.168 27.8361 24.2C27.8361 24.824 27.8601 25.976 27.9081 27.656Z" fill="#828282"/>
</svg>
