<svg width="76" height="76" viewBox="0 0 76 76" fill="none" xmlns="http://www.w3.org/2000/svg">
<path d="M32.3396 74.5294C34.7406 71.9758 35.934 68.5661 37.5394 65.4989C39.8551 60.2489 42.7391 55.27 44.7848 49.9202C45.9072 54.2429 46.8591 58.6083 48.1377 62.8882C49.0185 65.7842 48.919 69.0512 50.6665 71.6334C51.4763 72.9173 53.1243 73.3596 54.5591 73.1313C57.4857 72.7033 60.2419 71.5193 63.1685 71.0199C64.2908 70.6776 65.8535 70.7631 66.4786 69.5505C67.0611 68.5661 67.1038 67.382 66.5213 66.3977C64.0919 60.8338 60.7959 55.7123 57.5994 50.5907C59.7872 50.5194 62.0035 50.5194 64.163 50.1199C66.9617 49.4922 68.9364 47.1953 70.6981 45.0839C71.863 43.5574 73.5537 42.4304 74.3635 40.6472C75.7415 37.9794 75.8268 34.9264 75.7699 32.0018C75.6705 28.4067 76.0114 24.8259 75.9546 21.2451C76.0825 14.9109 74.5055 8.61949 71.8773 2.87021C71.2806 1.45785 69.8457 0.502041 68.3256 0.530573C63.069 0.402178 57.8125 0.716038 52.5702 0.44498C44.6002 0.0169933 36.6159 0.216717 28.6317 0.173918C24.0713 0.273782 19.4967 -0.23983 14.9363 0.145358C12.2796 0.330819 9.18253 0.202423 7.17937 2.28529C5.55979 3.91164 3.514 5.03868 1.93705 6.70782C0.246434 8.54817 0.118564 11.2017 0.0191165 13.5842C0.0191165 17.1792 -0.0945034 20.7886 0.232254 24.3837C0.701079 29.9618 0.573212 35.5969 1.42562 41.1465C1.88024 43.8999 1.83761 46.8958 3.37195 49.3353C4.35222 50.9759 6.31276 51.6321 8.07441 52.0031C12.1944 52.645 16.3712 52.6878 20.5196 52.3169C23.8582 52.2741 27.211 52.16 30.5354 51.8604C28.788 55.3699 27.14 58.9222 25.5062 62.4744C24.0429 65.7129 22.1107 68.7088 20.8037 72.0043C20.065 73.4166 20.889 75.0858 22.0681 75.956C24.0855 76.0131 26.1029 75.6279 28.1344 75.7849C29.6262 75.8847 31.3025 75.7563 32.3396 74.5294ZM58.2955 56.825C60.3839 60.3916 62.4866 63.9724 64.163 67.7815C60.7249 68.2237 57.4999 69.6504 54.0619 69.9785C52.4849 70.2923 52.0445 68.6089 51.7036 67.4676C50.0129 60.6626 47.3421 54.1287 46.1913 47.1953C48.2229 47.124 50.2687 46.9956 52.3145 46.8244C54.616 49.963 56.2356 53.5153 58.2955 56.825ZM7.91815 6.00879C8.31594 4.22552 10.0776 3.19836 11.7966 3.02716C18.3886 2.14266 25.0658 2.71327 31.7004 2.72754C40.6791 2.31382 49.6862 2.79887 58.6791 2.37088C62.2734 2.58488 65.7399 3.68338 69.3627 3.7975C71.1669 7.70645 72.5592 11.8294 73.1133 16.1235C74.0225 21.0311 73.2553 26.0243 73.5679 30.9747C73.5253 33.9991 73.6531 37.4515 71.6642 39.9624C69.7463 41.9311 66.8764 42.3448 64.305 42.7871C55.8661 44.0282 47.3421 44.8129 38.818 45.0982C32.1976 45.0411 25.6056 45.9542 18.9852 45.4977C16.9679 45.3693 14.8653 45.4549 12.9758 44.6702C10.9016 43.6431 10.3191 41.1607 9.92128 39.0921C9.25356 34.1846 8.6569 29.2485 8.40118 24.2981C7.96077 18.2349 6.52588 12.0719 7.91815 6.00879ZM23.915 72.6463C27.8219 64.3861 31.2457 55.912 34.7832 47.4807C37.5109 47.495 40.2387 47.5092 42.9664 47.3095C41.2473 51.9032 38.7754 56.1402 36.7722 60.5913C35.2805 63.8155 33.8456 67.0824 32.1266 70.1925C31.473 71.1768 30.8196 72.3324 29.6688 72.7604C27.7509 72.8032 25.8329 72.632 23.915 72.6463Z" fill="black"/>
<path d="M61.7479 11.2731C61.5774 12.1719 62.6571 12.2147 63.2822 12.3859C65.0012 12.5143 66.6492 11.801 68.1978 11.1447C66.0952 10.5598 63.7937 10.4599 61.7479 11.2731Z" fill="black"/>
<path d="M68.5104 8.70511C66.1378 6.36545 62.6145 7.50674 59.7874 8.16299C62.0747 10.4313 65.74 9.46122 68.5104 8.70511Z" fill="black"/>
<path d="M32.1763 35.9015C37.5326 40.0642 45.2505 40.4454 51.3167 37.6245C58.0005 34.5902 62.4768 27.2406 61.7668 19.9673C61.5044 15.9265 59.081 12.2213 55.716 9.9951C51.4557 7.03698 45.9296 6.21359 40.8976 7.23521C34.785 8.4398 29.0429 12.4653 26.7738 18.3205C24.2732 24.5417 26.8201 31.9675 32.1763 35.9015ZM28.1939 20.4705C29.9381 14.4323 35.9272 10.3458 42.0089 9.38518C47.3189 8.57704 53.3079 10.1171 56.8428 14.3103C59.2044 17.0244 59.6984 20.9432 58.8031 24.3282C57.2596 30.1682 51.9342 34.6206 46.084 35.9472C40.7895 37.0756 34.7541 35.566 31.0804 31.4948C28.41 28.5825 26.9899 24.3282 28.1939 20.4705Z" fill="black"/>
<path d="M27.4668 41.9883C28.376 40.5902 28.9301 38.9924 28.8449 37.3232C27.5094 37.5515 26.1882 37.8796 24.938 38.4075C25.5347 39.7485 26.2876 41.061 27.4668 41.9883Z" fill="black"/>
<path d="M22.6222 41.2608C23.4462 40.2764 23.6593 38.9496 24.0429 37.7655C22.8353 37.2377 21.5283 37.4232 20.2639 37.5801C20.2071 39.078 20.7612 41.2893 22.6222 41.2608Z" fill="black"/>
<path d="M17.4651 40.904C18.9994 40.3619 19.2836 38.4503 19.3972 37.0379C18.559 36.4387 17.4793 36.4815 16.6127 36.938C14.9789 37.9652 16.1297 40.1622 17.4651 40.904Z" fill="black"/>
</svg>
