<svg width="66" height="57" viewBox="0 0 66 57" fill="none" xmlns="http://www.w3.org/2000/svg">
<g clip-path="url(#clip0_334_16552)">
<rect width="66" height="57" fill="#E3DAFA"/>
<path d="M2 2.00016C2 2.00016 15.4646 3.50018 33 2.00016C50.5354 0.500153 64 2.00016 64 2.00016" stroke="#7345E4" stroke-width="3" stroke-linecap="round" stroke-linejoin="round"/>
<path d="M7 55.0002C7 55.0002 18.9444 56.5002 34.5 55.0002C50.0556 53.5002 62 55.0002 62 55.0002" stroke="#7345E4" stroke-width="3" stroke-linecap="round" stroke-linejoin="round"/>
<path d="M2.00001 56C2.00001 56 3.50002 44.4899 2.00001 29.5C0.5 14.5101 2.00001 3 2.00001 3" stroke="#7345E4" stroke-width="3" stroke-linecap="round" stroke-linejoin="round"/>
<path d="M63 55C63 55 66.75 43.7071 63 29C59.25 14.2929 63 3 63 3" stroke="#7345E4" stroke-width="3" stroke-linecap="round" stroke-linejoin="round"/>
<g clip-path="url(#clip1_334_16552)">
<rect width="48" height="48" transform="translate(8 4)" fill="#E3DAFA"/>
<path fill-rule="evenodd" clip-rule="evenodd" d="M27.48 40.5599C26.663 40.3808 25.8607 40.1401 25.08 39.8399C24.3152 39.5542 23.5842 39.1854 22.9 38.7399C21.7105 37.9857 20.7239 36.9514 20.0266 35.7276C19.3293 34.5038 18.9425 33.1278 18.9 31.7199C18.8058 28.8844 19.6884 26.1025 21.4 23.8399C22.4919 22.3231 23.9057 21.0665 25.54 20.1599C27.1946 19.2834 29.0128 18.7591 30.88 18.6199C33.3619 18.4765 35.83 19.0776 37.968 20.3462C40.106 21.6147 41.8164 23.4929 42.88 25.7399C43.5141 26.8019 43.9266 27.9813 44.0925 29.2071C44.2584 30.4328 44.1744 31.6794 43.8455 32.8718C43.5165 34.0641 42.9495 35.1775 42.1786 36.1448C41.4077 37.1121 40.4489 37.9132 39.36 38.4999C39.2698 38.5516 39.1909 38.6208 39.1278 38.7034C39.0647 38.786 39.0188 38.8804 38.9927 38.981C38.9666 39.0816 38.9609 39.1864 38.9759 39.2893C38.9909 39.3921 39.0263 39.4909 39.08 39.5799C39.1297 39.6694 39.197 39.748 39.2778 39.8109C39.3587 39.8737 39.4513 39.9196 39.5503 39.9458C39.6493 39.9719 39.7526 39.9778 39.8539 39.963C39.9553 39.9483 40.0526 39.9132 40.14 39.8599C46.56 36.3399 47.3 30.0399 44.88 24.7799C43.6656 22.1025 41.6912 19.8411 39.2021 18.2765C36.7131 16.712 33.8192 15.9134 30.88 15.9799C28.628 16.128 26.4361 16.7698 24.46 17.8599C22.016 19.2391 20.0205 21.2925 18.7119 23.775C17.4032 26.2575 16.8367 29.0642 17.08 31.8599C17.1765 33.5306 17.674 35.1535 18.5304 36.5913C19.3868 38.029 20.5769 39.2394 22 40.1199C22.7981 40.5813 23.6428 40.9567 24.52 41.2399C25.3683 41.5318 26.2374 41.7591 27.12 41.9199C27.3055 41.9554 27.4975 41.9166 27.6546 41.8118C27.8117 41.7071 27.9214 41.5448 27.96 41.3599C27.9923 41.1909 27.9613 41.0159 27.8727 40.8683C27.7842 40.7207 27.6444 40.6109 27.48 40.5599Z" fill="#7345E4"/>
<path fill-rule="evenodd" clip-rule="evenodd" d="M31.8 37.6002C32.7046 37.4222 33.5479 37.014 34.2486 36.4149C34.9493 35.8158 35.4837 35.0461 35.8 34.1802C35.8518 34.0903 35.8847 33.9908 35.8966 33.8877C35.9084 33.7847 35.8991 33.6803 35.8691 33.581C35.8391 33.4817 35.7892 33.3896 35.7222 33.3103C35.6553 33.2311 35.5729 33.1663 35.48 33.1202C35.3901 33.0684 35.2906 33.0355 35.1876 33.0236C35.0845 33.0117 34.9801 33.0211 34.8808 33.051C34.7815 33.081 34.6894 33.131 34.6102 33.1979C34.5309 33.2648 34.4662 33.3473 34.42 33.4402C34.0305 34.035 33.4719 34.4996 32.816 34.774C32.1601 35.0485 31.4371 35.1203 30.74 34.9802C30.3287 34.9323 29.9254 34.8315 29.54 34.6802C28.504 34.3501 27.6092 33.6808 27 32.7802C26.9671 32.6835 26.9129 32.5955 26.8413 32.5227C26.7697 32.4499 26.6827 32.3941 26.5866 32.3595C26.4906 32.325 26.388 32.3124 26.2864 32.3229C26.1849 32.3334 26.087 32.3667 26 32.4202C25.8305 32.4947 25.6975 32.6334 25.63 32.8058C25.5626 32.9782 25.5661 33.1704 25.64 33.3402C26.0565 34.8416 27.0196 36.1329 28.34 36.9602C28.9528 37.3185 29.6343 37.5435 30.34 37.6202C30.8249 37.6877 31.3172 37.6809 31.8 37.6002Z" fill="#7345E4"/>
<path fill-rule="evenodd" clip-rule="evenodd" d="M55.78 28.8801C55.6554 28.3498 55.4603 27.8386 55.2 27.3601C54.7276 26.5196 54.0853 25.7867 53.314 25.2082C52.5426 24.6297 51.6592 24.2182 50.72 24.0001C50.567 22.8238 50.3263 21.6605 50 20.5201C49.2586 17.9614 47.967 15.5956 46.2154 13.5884C44.4639 11.5812 42.2948 9.9811 39.86 8.90009C37.2847 7.92681 34.5386 7.48698 31.7881 7.60731C29.0377 7.72764 26.3404 8.40562 23.86 9.60009C21.309 10.6442 19.0537 12.2993 17.2925 14.4197C15.5313 16.5401 14.3183 19.0608 13.76 21.7601C13.76 22.2401 13.76 22.7201 13.64 23.2001C12.6222 23.3899 11.6596 23.8044 10.8224 24.4133C9.98506 25.0223 9.29416 25.8103 8.80001 26.7201C8.53967 27.1986 8.34461 27.7098 8.22001 28.2401C7.89218 29.3497 7.89218 30.5305 8.22001 31.6401C8.51782 32.4763 9.01941 33.2252 9.67941 33.8188C10.3394 34.4125 11.137 34.8322 12 35.0401C12.3976 35.1648 12.8061 35.2519 13.22 35.3001C13.6257 35.3399 14.0343 35.3399 14.44 35.3001C14.6231 35.2937 14.7985 35.2247 14.9368 35.1046C15.0751 34.9845 15.1681 34.8205 15.2 34.6401C15.2811 34.6791 15.37 34.6994 15.46 34.6994C15.55 34.6994 15.6389 34.6791 15.72 34.6401C15.8424 34.5848 15.9458 34.4946 16.0169 34.3807C16.0881 34.2668 16.124 34.1343 16.12 34.0001C15.6516 32.0297 15.3572 30.022 15.24 28.0001C15.1286 26.0236 15.2697 24.0409 15.66 22.1001C16.2878 19.7978 17.4579 17.6794 19.0725 15.9222C20.687 14.165 22.699 12.8201 24.94 12.0001C27.1109 10.9595 29.4684 10.3649 31.8731 10.2515C34.2779 10.1381 36.6809 10.5083 38.94 11.3401C41.0665 12.2362 42.9757 13.5785 44.5388 15.276C46.1018 16.9736 47.2821 18.987 48 21.1801C49.514 25.7477 49.3795 30.7014 47.62 35.1801C47.5812 35.2759 47.5618 35.3784 47.5629 35.4818C47.564 35.5851 47.5857 35.6872 47.6266 35.7821C47.6676 35.877 47.727 35.9629 47.8014 36.0346C47.8758 36.1064 47.9637 36.1626 48.06 36.2001C48.1836 36.2399 48.3165 36.2399 48.44 36.2001C47.8842 37.3636 47.2142 38.469 46.44 39.5001C45.7007 40.5022 44.8333 41.4032 43.86 42.1801C42.3633 43.5275 40.4333 44.2938 38.42 44.3401C38.3311 44.1787 38.1879 44.0541 38.0159 43.9882C37.8438 43.9223 37.654 43.9194 37.48 43.9801C37.284 44.06 37.1277 44.2143 37.0452 44.4092C36.9627 44.6041 36.9609 44.8238 37.04 45.0201C37.04 45.2801 37.04 45.4601 36.78 45.6401C36.46 45.8837 36.0798 46.0358 35.68 46.0801C35.1215 46.1864 34.5458 46.159 34 46.0001C33.4464 45.8645 32.9282 45.6122 32.48 45.2601C32.14 45.0201 31.88 44.8601 32 44.6201C32.1505 44.3283 32.3882 44.0906 32.68 43.9401L34.04 43.5001C34.4235 43.4371 34.8113 43.4036 35.2 43.4001H36.44C36.6177 43.429 36.7995 43.3863 36.9457 43.2813C37.0919 43.1763 37.1906 43.0177 37.22 42.8401C37.2374 42.7495 37.2366 42.6563 37.2179 42.5659C37.1991 42.4756 37.1626 42.3898 37.1106 42.3136C37.0585 42.2374 36.9919 42.1722 36.9146 42.1219C36.8373 42.0715 36.7507 42.0369 36.66 42.0201L34 41.5801C33.6607 41.5501 33.3193 41.5501 32.98 41.5801C32.6204 41.6079 32.265 41.6749 31.92 41.7801C31.3531 41.9216 30.8317 42.2052 30.4048 42.6041C29.9779 43.0031 29.6596 43.5041 29.48 44.0601C29.3486 44.6931 29.421 45.3514 29.6869 45.9406C29.9528 46.5299 30.3985 47.0198 30.96 47.3401C31.7605 47.8685 32.6696 48.2103 33.62 48.3401C34.5276 48.432 35.4441 48.3157 36.3 48.0001C37.119 47.6916 37.8192 47.1314 38.3 46.4001C38.3874 46.2145 38.4545 46.0201 38.5 45.8201C40.5729 46.0958 42.6792 45.6886 44.5 44.6601C46.1575 43.696 47.536 42.3176 48.5 40.6601C49.3747 39.2252 49.9907 37.6479 50.32 36.0001H50.88C51.2927 35.9354 51.7004 35.8418 52.1 35.7201C52.9337 35.489 53.6987 35.0588 54.3293 34.4665C54.9599 33.8743 55.4372 33.1377 55.72 32.3201C56.0825 31.2051 56.1034 30.0071 55.78 28.8801ZM13.46 33.6001C13.1733 33.5041 12.8928 33.3905 12.62 33.2601C12.1525 33.0319 11.7425 32.7011 11.4204 32.2925C11.0984 31.8839 10.8727 31.408 10.76 30.9001C10.6259 30.2402 10.6259 29.56 10.76 28.9001C10.899 28.0795 11.2118 27.298 11.6775 26.6081C12.1432 25.9183 12.7509 25.3359 13.46 24.9001C13.4401 25.9948 13.4802 27.0898 13.58 28.1801C13.7799 30.1495 14.1547 32.0972 14.7 34.0001C14.58 34.0001 14.5 33.8601 14.36 33.8601L13.46 33.6001ZM51.46 33.8801C48.44 35.3401 51.26 32.0001 50.92 25.6401C52.1833 26.5611 53.0373 27.9389 53.3 29.4801C53.4315 30.1403 53.4315 30.8199 53.3 31.4801C53.188 32.0016 52.9562 32.4899 52.6229 32.9064C52.2897 33.323 51.8642 33.6563 51.38 33.8801H51.46Z" fill="#2E2E2E"/>
<path fill-rule="evenodd" clip-rule="evenodd" d="M25.66 25.0199C25.2983 25.0099 24.9381 25.071 24.6 25.1999C23.8404 25.4987 23.1571 25.9633 22.6 26.5599C22.4443 26.6587 22.3338 26.815 22.2926 26.9947C22.2514 27.1745 22.2828 27.3632 22.38 27.5199C22.66 28.0199 26.38 27.5199 27.1 27.5199C27.4189 27.5325 27.7349 27.5863 28.04 27.6799C28.2217 27.786 28.4372 27.8181 28.642 27.7698C28.8467 27.7214 29.025 27.5961 29.14 27.4199C29.245 27.2413 29.2765 27.0289 29.228 26.8275C29.1795 26.626 29.0548 26.4513 28.88 26.3399C28.2817 25.7438 27.5366 25.316 26.72 25.0999C26.3738 25.0132 26.0153 24.9862 25.66 25.0199Z" fill="#7345E4"/>
<path fill-rule="evenodd" clip-rule="evenodd" d="M40.16 27.5199C40.2554 27.3608 40.2837 27.1702 40.2387 26.9902C40.1937 26.8102 40.0791 26.6554 39.92 26.5599C39.3685 25.9568 38.6836 25.4911 37.92 25.1999C37.5819 25.071 37.2217 25.0098 36.86 25.0199C36.4958 24.9992 36.1308 25.0398 35.78 25.1399C34.9652 25.3603 34.2212 25.7874 33.62 26.3799C33.4486 26.4943 33.3279 26.6705 33.2832 26.8717C33.2385 27.0729 33.2732 27.2836 33.38 27.4599C33.4915 27.6401 33.67 27.7687 33.8762 27.8174C34.0825 27.8662 34.2996 27.8311 34.48 27.7199C34.7851 27.6262 35.1011 27.5725 35.42 27.5599C37.68 27.3799 39.74 28.2399 40.16 27.5199Z" fill="#7345E4"/>
</g>
</g>
<defs>
<clipPath id="clip0_334_16552">
<rect width="66" height="57" fill="white"/>
</clipPath>
<clipPath id="clip1_334_16552">
<rect width="48" height="48" fill="white" transform="translate(8 4)"/>
</clipPath>
</defs>
</svg>
