<svg width="66" height="64" viewBox="0 0 66 64" fill="none" xmlns="http://www.w3.org/2000/svg">
<path d="M11.0538 46.5216C9.98194 44.4461 9.79049 42.0822 9.68525 39.7886C9.55729 36.9431 9.32038 34.1013 9.29574 31.2542C9.2875 28.2179 8.97714 25.1899 9.13959 22.1581C9.25496 20.045 8.79816 17.7661 9.84171 15.8153C10.8081 14.4101 12.582 13.9324 14.1512 13.5289C14.6683 13.3902 15.1932 13.2549 15.7081 13.1106C19.9062 11.827 24.2935 11.3362 28.6391 10.8553C33.9076 10.7867 39.1571 10.3734 44.4247 10.253C45.4883 10.2314 46.5601 10.1153 47.6289 10.2222C48.4608 10.3051 49.1371 10.8668 49.8285 11.2855C50.8449 11.9022 51.416 12.988 52.171 13.8644C53.1611 15.222 54.7375 16.2701 55.0199 18.0242C55.5053 19.8483 55.5883 21.7397 55.7277 23.6089C55.7926 25.5531 56.035 27.486 56.1078 29.4337C56.2996 33.265 56.0433 37.097 55.9499 40.9299C55.779 43.1824 55.7504 45.5157 54.8456 47.6205C54.5193 48.408 53.8077 48.9103 53.149 49.3984C52.0017 50.2291 50.5567 50.4206 49.2589 50.9193C47.3765 51.616 45.3646 51.7375 43.3972 52.0046C41.3062 52.2877 39.1937 52.2859 37.1061 52.5612C35.3455 52.7924 33.5642 52.823 31.795 52.9336C27.3922 53.3522 22.9049 53.5563 18.5234 52.7598C17.6187 52.6078 16.6056 52.642 15.8418 52.0562C14.6601 51.185 13.7658 50.0049 12.8828 48.8529C12.3298 48.0274 11.4998 47.4219 11.0538 46.5216ZM13.8842 47.6688C16.1682 48.3857 18.6135 48.2759 20.9821 48.2681C25.8431 48.1384 30.7131 48.3444 35.5699 48.1381C38.808 48.0287 42.0673 47.9893 45.259 47.3503C47.1998 46.9829 49.3382 46.6549 50.7911 45.1819C51.3398 44.6785 51.5244 43.9274 51.6157 43.2196C51.7856 41.8546 51.7883 40.4773 51.8011 39.109C51.7798 35.6278 52.146 32.1569 52.0214 28.6774C51.9137 24.565 51.868 20.3955 50.7918 16.3976C50.3874 14.8612 50.0003 13.1876 48.8094 12.0461C48.2602 11.4278 47.3776 11.3975 46.6152 11.359C41.5931 11.3109 36.5517 11.2964 31.5655 11.8994C28.0162 12.3402 24.4242 12.4587 20.9055 13.1418C18.3693 13.5483 15.9394 14.3891 13.4674 15.0574C12.4825 15.3609 11.4476 15.8343 10.8627 16.7237C10.3273 17.8871 10.3102 19.2114 10.3282 20.4762C10.3574 22.3628 10.1429 24.241 10.2428 26.1258C10.4133 29.6394 10.3468 33.1617 10.6128 36.6703C10.8084 39.1435 10.7477 41.6591 11.35 44.0762C11.7515 45.4898 12.3204 47.1962 13.8842 47.6688Z" fill="#7345E4"/>
<path d="M33.6733 47.7443C32.9243 47.1135 32.3084 46.2932 32.058 45.3287C32.6775 46.0759 33.2463 46.8756 33.6733 47.7443Z" fill="#7345E4"/>
<path d="M34.8038 46.9202C34.2397 46.6926 33.7706 46.2775 33.4366 45.7765C34.038 45.9503 34.4766 46.4035 34.8038 46.9202Z" fill="#7345E4"/>
<path d="M49.4806 42.3201C49.1372 41.614 48.8669 40.8792 48.5741 40.1533C48.3216 39.4962 47.9634 38.8352 48.0727 38.1072C48.6608 39.4668 49.3882 40.8171 49.4806 42.3201Z" fill="#7345E4"/>
<path d="M49.5079 37.4953L49.6461 37.4996C49.3279 36.6597 48.841 35.8864 48.6296 35.0044C49.6053 36.0285 50.0281 37.4468 50.44 38.7715C50.172 38.6684 50.0798 37.4459 49.7323 37.883C49.7338 38.7108 50.2646 39.4472 50.2897 40.2852C49.6502 38.8611 48.6612 37.4901 48.5636 35.8914C48.9482 36.3724 48.9418 37.2294 49.5079 37.4953Z" fill="#7345E4"/>
<path d="M50.8369 28.277C49.9839 26.8719 49.0556 25.4899 48.4873 23.9333C49.5047 25.228 50.3181 26.714 50.8369 28.277Z" fill="#7345E4"/>
<path d="M47.8126 20.7227C48.814 22.0758 49.6442 23.5552 50.1843 25.1555C49.2999 23.7366 48.2379 22.3617 47.8126 20.7227Z" fill="#7345E4"/>
<path d="M50.0965 23.038C49.1618 21.5411 48.0854 20.1132 47.3905 18.4827C48.7531 19.6477 49.5184 21.3744 50.0965 23.038Z" fill="#7345E4"/>
<path d="M48.0289 16.7567C48.6856 17.7958 49.2734 18.9076 49.6016 20.1023C48.7644 18.6713 47.8192 17.296 47.0878 15.8038C47.4598 16.055 47.7911 16.3679 48.0289 16.7567Z" fill="#7345E4"/>
<path d="M32.6876 36.872C32.6876 37.656 32.2636 38.048 31.4156 38.048C31.2396 38.048 31.0796 37.976 30.9356 37.832C30.8076 37.672 30.7436 37.432 30.7436 37.112L30.6716 31.016C30.6716 29 30.6956 27.104 30.7436 25.328C30.1996 25.808 29.6716 26.36 29.1596 26.984C28.6476 27.608 28.2956 28.024 28.1036 28.232C27.9276 28.44 27.6876 28.648 27.3836 28.856C27.0956 29.048 26.8236 29.144 26.5676 29.144C26.3116 29.144 26.1036 29.056 25.9436 28.88C25.7996 28.704 25.7276 28.488 25.7276 28.232C25.7276 27.976 25.9116 27.632 26.2796 27.2C26.6636 26.752 28.0556 25.256 30.4556 22.712C30.8236 22.376 31.2876 22.208 31.8476 22.208C32.1196 22.208 32.3436 22.288 32.5196 22.448C32.6956 22.608 32.7836 22.792 32.7836 23L32.6156 29.456L32.6876 36.872Z" fill="#7345E4"/>
</svg>
