<svg width="67" height="64" viewBox="0 0 67 64" fill="none" xmlns="http://www.w3.org/2000/svg">
<path d="M11.5567 46.5216C10.4849 44.4461 10.2934 42.0822 10.1882 39.7886C10.0602 36.9431 9.82331 34.1013 9.79867 31.2542C9.79043 28.2179 9.48007 25.1899 9.64252 22.1581C9.75789 20.045 9.30109 17.7661 10.3446 15.8153C11.311 14.4101 13.0849 13.9324 14.6541 13.5289C15.1712 13.3902 15.6962 13.2549 16.211 13.1106C20.4091 11.827 24.7964 11.3362 29.1421 10.8553C34.4106 10.7867 39.6601 10.3734 44.9276 10.253C45.9912 10.2314 47.063 10.1153 48.1318 10.2222C48.9637 10.3051 49.64 10.8668 50.3314 11.2855C51.3478 11.9022 51.919 12.988 52.6739 13.8644C53.6641 15.222 55.2405 16.2701 55.5228 18.0242C56.0082 19.8483 56.0913 21.7397 56.2306 23.6089C56.2955 25.5531 56.5379 27.486 56.6107 29.4337C56.8025 33.265 56.5462 37.097 56.4528 40.9299C56.2819 43.1824 56.2533 45.5157 55.3485 47.6205C55.0222 48.408 54.3107 48.9103 53.6519 49.3984C52.5046 50.2291 51.0596 50.4206 49.7619 50.9193C47.8794 51.616 45.8676 51.7375 43.9001 52.0046C41.8091 52.2877 39.6967 52.2859 37.609 52.5612C35.8484 52.7924 34.0671 52.823 32.2979 52.9336C27.8952 53.3522 23.4078 53.5563 19.0263 52.7598C18.1217 52.6078 17.1085 52.642 16.3447 52.0562C15.163 51.185 14.2688 50.0049 13.3857 48.8529C12.8327 48.0274 12.0027 47.4219 11.5567 46.5216ZM14.3872 47.6688C16.6712 48.3857 19.1164 48.2759 21.485 48.2681C26.346 48.1384 31.216 48.3444 36.0728 48.1381C39.311 48.0287 42.5702 47.9893 45.7619 47.3503C47.7028 46.9829 49.8411 46.6549 51.294 45.1819C51.8427 44.6785 52.0274 43.9274 52.1186 43.2196C52.2886 41.8546 52.2913 40.4773 52.304 39.109C52.2828 35.6278 52.6489 32.1569 52.5244 28.6774C52.4166 24.565 52.3709 20.3955 51.2947 16.3976C50.8903 14.8612 50.5032 13.1876 49.3124 12.0461C48.7631 11.4278 47.8805 11.3975 47.1181 11.359C42.096 11.3109 37.0547 11.2964 32.0684 11.8994C28.5191 12.3402 24.9271 12.4587 21.4084 13.1418C18.8722 13.5483 16.4423 14.3891 13.9703 15.0574C12.9854 15.3609 11.9505 15.8343 11.3656 16.7237C10.8303 17.8871 10.8132 19.2114 10.8311 20.4762C10.8603 22.3628 10.6458 24.241 10.7458 26.1258C10.9163 29.6394 10.8498 33.1617 11.1157 36.6703C11.3113 39.1435 11.2506 41.6591 11.8529 44.0762C12.2544 45.4898 12.8233 47.1962 14.3872 47.6688Z" fill="#828282"/>
<path d="M34.1763 47.7443C33.4272 47.1135 32.8113 46.2932 32.561 45.3287C33.1805 46.0759 33.7492 46.8756 34.1763 47.7443Z" fill="#828282"/>
<path d="M35.3067 46.9202C34.7426 46.6926 34.2736 46.2775 33.9395 45.7765C34.5409 45.9503 34.9795 46.4035 35.3067 46.9202Z" fill="#828282"/>
<path d="M49.9835 42.3201C49.6401 41.614 49.3698 40.8792 49.0771 40.1533C48.8245 39.4962 48.4664 38.8352 48.5756 38.1072C49.1638 39.4668 49.8912 40.8171 49.9835 42.3201Z" fill="#828282"/>
<path d="M50.0109 37.4953L50.149 37.4996C49.8308 36.6597 49.3439 35.8864 49.1326 35.0044C50.1082 36.0285 50.531 37.4468 50.9429 38.7715C50.6749 38.6684 50.5827 37.4459 50.2352 37.883C50.2368 38.7108 50.7676 39.4472 50.7927 40.2852C50.1531 38.8611 49.1641 37.4901 49.0665 35.8914C49.4511 36.3724 49.4447 37.2294 50.0109 37.4953Z" fill="#828282"/>
<path d="M51.3399 28.277C50.4869 26.8719 49.5586 25.4899 48.9902 23.9333C50.0076 25.228 50.821 26.714 51.3399 28.277Z" fill="#828282"/>
<path d="M48.3155 20.7227C49.3169 22.0758 50.1472 23.5552 50.6872 25.1555C49.8029 23.7366 48.7409 22.3617 48.3155 20.7227Z" fill="#828282"/>
<path d="M50.5994 23.038C49.6648 21.5411 48.5884 20.1132 47.8934 18.4827C49.256 19.6477 50.0214 21.3744 50.5994 23.038Z" fill="#828282"/>
<path d="M48.5318 16.7567C49.1885 17.7958 49.7764 18.9076 50.1045 20.1023C49.2673 18.6713 48.3222 17.296 47.5908 15.8038C47.9627 16.055 48.294 16.3679 48.5318 16.7567Z" fill="#828282"/>
<path d="M32.6386 38.048L29.1106 38C28.9506 38 28.7906 38 28.6306 38C27.0466 38 26.2546 37.696 26.2546 37.088C26.2546 36.656 26.3346 36.248 26.4946 35.864C26.6546 35.48 26.8066 35.192 26.9506 35C27.0946 34.808 27.3826 34.488 27.8146 34.04C28.2466 33.592 28.5586 33.256 28.7506 33.032C28.9426 32.808 29.5186 32.24 30.4786 31.328C31.4546 30.416 32.1826 29.592 32.6626 28.856C33.1586 28.12 33.4066 27.344 33.4066 26.528C33.4066 25.264 32.9026 24.448 31.8946 24.08C31.6066 23.984 31.3106 23.936 31.0066 23.936C30.3186 23.936 29.6306 24.232 28.9426 24.824C28.6706 25.08 28.3826 25.208 28.0786 25.208C27.9826 25.208 27.8946 25.2 27.8146 25.184C27.4146 25.088 27.2146 24.808 27.2146 24.344C27.2146 23.72 27.6546 23.2 28.5346 22.784C29.4786 22.336 30.5026 22.112 31.6066 22.112C32.7266 22.112 33.6386 22.52 34.3426 23.336C35.0626 24.136 35.4226 25.136 35.4226 26.336C35.4226 28.048 34.8946 29.52 33.8386 30.752C33.3426 31.328 32.8386 31.864 32.3266 32.36C30.7106 33.896 29.6306 35.064 29.0866 35.864C29.8066 35.912 30.6946 35.936 31.7506 35.936C32.8226 35.936 34.1426 35.872 35.7106 35.744C35.9506 35.792 36.1426 35.904 36.2866 36.08C36.4466 36.24 36.5266 36.424 36.5266 36.632C36.5266 37.176 36.2386 37.552 35.6626 37.76C35.0866 37.952 34.0786 38.048 32.6386 38.048Z" fill="#828282"/>
</svg>
