<svg width="66" height="64" viewBox="0 0 66 64" fill="none" xmlns="http://www.w3.org/2000/svg">
<path d="M10.9505 46.5216C9.87867 44.4461 9.68721 42.0822 9.58198 39.7886C9.45402 36.9431 9.21711 34.1013 9.19247 31.2542C9.18423 28.2179 8.87387 25.1899 9.03632 22.1581C9.15169 20.045 8.69488 17.7661 9.73844 15.8153C10.7048 14.4101 12.4787 13.9324 14.0479 13.5289C14.565 13.3902 15.09 13.2549 15.6048 13.1106C19.8029 11.827 24.1902 11.3362 28.5359 10.8553C33.8044 10.7867 39.0539 10.3734 44.3214 10.253C45.385 10.2314 46.4568 10.1153 47.5256 10.2222C48.3575 10.3051 49.0338 10.8668 49.7252 11.2855C50.7416 11.9022 51.3128 12.988 52.0677 13.8644C53.0579 15.222 54.6343 16.2701 54.9166 18.0242C55.402 19.8483 55.4851 21.7397 55.6244 23.6089C55.6893 25.5531 55.9317 27.486 56.0045 29.4337C56.1963 33.265 55.94 37.097 55.8466 40.9299C55.6757 43.1824 55.6471 45.5157 54.7423 47.6205C54.416 48.408 53.7045 48.9103 53.0457 49.3984C51.8984 50.2291 50.4534 50.4206 49.1557 50.9193C47.2732 51.616 45.2614 51.7375 43.2939 52.0046C41.2029 52.2877 39.0905 52.2859 37.0028 52.5612C35.2422 52.7924 33.4609 52.823 31.6917 52.9336C27.289 53.3522 22.8016 53.5563 18.4201 52.7598C17.5154 52.6078 16.5023 52.642 15.7385 52.0562C14.5568 51.185 13.6626 50.0049 12.7795 48.8529C12.2265 48.0274 11.3965 47.4219 10.9505 46.5216ZM13.781 47.6688C16.065 48.3857 18.5102 48.2759 20.8788 48.2681C25.7398 48.1384 30.6098 48.3444 35.4666 48.1381C38.7048 48.0287 41.964 47.9893 45.1557 47.3503C47.0966 46.9829 49.2349 46.6549 50.6878 45.1819C51.2365 44.6785 51.4212 43.9274 51.5124 43.2196C51.6824 41.8546 51.685 40.4773 51.6978 39.109C51.6766 35.6278 52.0427 32.1569 51.9181 28.6774C51.8104 24.565 51.7647 20.3955 50.6885 16.3976C50.2841 14.8612 49.897 13.1876 48.7062 12.0461C48.1569 11.4278 47.2743 11.3975 46.5119 11.359C41.4898 11.3109 36.4485 11.2964 31.4622 11.8994C27.9129 12.3402 24.3209 12.4587 20.8022 13.1418C18.266 13.5483 15.8361 14.3891 13.3641 15.0574C12.3792 15.3609 11.3443 15.8343 10.7594 16.7237C10.2241 17.8871 10.207 19.2114 10.2249 20.4762C10.2541 22.3628 10.0396 24.241 10.1396 26.1258C10.3101 29.6394 10.2436 33.1617 10.5095 36.6703C10.7051 39.1435 10.6444 41.6591 11.2467 44.0762C11.6482 45.4898 12.2171 47.1962 13.781 47.6688Z" fill="#828282"/>
<path d="M33.5701 47.7443C32.821 47.1135 32.2051 46.2932 31.9548 45.3287C32.5743 46.0759 33.143 46.8756 33.5701 47.7443Z" fill="#828282"/>
<path d="M34.7005 46.9202C34.1364 46.6926 33.6674 46.2775 33.3333 45.7765C33.9347 45.9503 34.3733 46.4035 34.7005 46.9202Z" fill="#828282"/>
<path d="M49.3773 42.3201C49.0339 41.614 48.7636 40.8792 48.4709 40.1533C48.2183 39.4962 47.8602 38.8352 47.9694 38.1072C48.5576 39.4668 49.285 40.8171 49.3773 42.3201Z" fill="#828282"/>
<path d="M49.4047 37.4953L49.5428 37.4996C49.2246 36.6597 48.7377 35.8864 48.5264 35.0044C49.502 36.0285 49.9248 37.4468 50.3367 38.7715C50.0687 38.6684 49.9765 37.4459 49.629 37.883C49.6306 38.7108 50.1614 39.4472 50.1864 40.2852C49.5469 38.8611 48.5579 37.4901 48.4603 35.8914C48.8449 36.3724 48.8385 37.2294 49.4047 37.4953Z" fill="#828282"/>
<path d="M50.7337 28.277C49.8807 26.8719 48.9524 25.4899 48.384 23.9333C49.4014 25.228 50.2148 26.714 50.7337 28.277Z" fill="#828282"/>
<path d="M47.7093 20.7227C48.7107 22.0758 49.541 23.5552 50.081 25.1555C49.1967 23.7366 48.1347 22.3617 47.7093 20.7227Z" fill="#828282"/>
<path d="M49.9932 23.038C49.0586 21.5411 47.9822 20.1132 47.2872 18.4827C48.6498 19.6477 49.4152 21.3744 49.9932 23.038Z" fill="#828282"/>
<path d="M47.9256 16.7567C48.5823 17.7958 49.1702 18.9076 49.4983 20.1023C48.6611 18.6713 47.7159 17.296 46.9846 15.8038C47.3565 16.055 47.6878 16.3679 47.9256 16.7567Z" fill="#828282"/>
<path d="M30.2324 23.984C29.2884 23.984 28.4084 24.392 27.5924 25.208C27.3684 25.368 27.1684 25.448 26.9924 25.448C26.8164 25.448 26.6644 25.432 26.5364 25.4C26.1684 25.288 25.9844 25.032 25.9844 24.632C25.9844 23.976 26.4004 23.4 27.2324 22.904C28.0644 22.408 29.0484 22.16 30.1844 22.16C31.3204 22.16 32.2644 22.464 33.0164 23.072C33.7844 23.664 34.1684 24.44 34.1684 25.4C34.1684 26.36 34.0564 27.16 33.8324 27.8C33.6244 28.44 33.1604 28.968 32.4404 29.384C34.1364 30.024 34.9844 31.176 34.9844 32.84C34.9844 34.248 34.5604 35.464 33.7124 36.488C32.8644 37.496 31.8244 38 30.5924 38C29.3764 38 28.3044 37.712 27.3764 37.136C26.4484 36.544 25.9844 35.88 25.9844 35.144C25.9844 35 26.0644 34.832 26.2244 34.64C26.3844 34.448 26.6164 34.352 26.9204 34.352C27.2244 34.352 27.5524 34.496 27.9044 34.784C28.2564 35.056 28.6564 35.336 29.1044 35.624C29.5524 35.896 30.0564 36.032 30.6164 36.032C32.2164 36.032 33.0164 35.032 33.0164 33.032C33.0164 32.264 32.7364 31.648 32.1764 31.184C31.6324 30.704 30.8564 30.456 29.8484 30.44C29.6404 30.424 29.4804 30.408 29.3684 30.392C29.2724 30.376 29.1364 30.304 28.9604 30.176C28.8004 30.048 28.7204 29.848 28.7204 29.576C28.7204 29 29.0404 28.688 29.6804 28.64C30.3204 28.592 30.8884 28.304 31.3844 27.776C31.8964 27.248 32.1524 26.584 32.1524 25.784C32.1524 25.336 31.9604 24.928 31.5764 24.56C31.1924 24.176 30.7444 23.984 30.2324 23.984Z" fill="#828282"/>
</svg>
