<svg width="67" height="64" viewBox="0 0 67 64" fill="none" xmlns="http://www.w3.org/2000/svg">
<path d="M11.559 46.5216C10.4871 44.4461 10.2957 42.0822 10.1904 39.7886C10.0625 36.9431 9.82557 34.1013 9.80093 31.2542C9.79269 28.2179 9.48233 25.1899 9.64478 22.1581C9.76015 20.045 9.30334 17.7661 10.3469 15.8153C11.3133 14.4101 13.0871 13.9324 14.6564 13.5289C15.1735 13.3902 15.6984 13.2549 16.2133 13.1106C20.4114 11.827 24.7986 11.3362 29.1443 10.8553C34.4128 10.7867 39.6623 10.3734 44.9299 10.253C45.9935 10.2314 47.0653 10.1153 48.1341 10.2222C48.966 10.3051 49.6423 10.8668 50.3337 11.2855C51.3501 11.9022 51.9212 12.988 52.6762 13.8644C53.6663 15.222 55.2427 16.2701 55.5251 18.0242C56.0104 19.8483 56.0935 21.7397 56.2328 23.6089C56.2978 25.5531 56.5402 27.486 56.6129 29.4337C56.8048 33.265 56.5485 37.097 56.455 40.9299C56.2842 43.1824 56.2556 45.5157 55.3508 47.6205C55.0245 48.408 54.3129 48.9103 53.6542 49.3984C52.5068 50.2291 51.0619 50.4206 49.7641 50.9193C47.8816 51.616 45.8698 51.7375 43.9024 52.0046C41.8114 52.2877 39.6989 52.2859 37.6113 52.5612C35.8507 52.7924 34.0694 52.823 32.3002 52.9336C27.8974 53.3522 23.4101 53.5563 19.0285 52.7598C18.1239 52.6078 17.1108 52.642 16.347 52.0562C15.1653 51.185 14.271 50.0049 13.3879 48.8529C12.835 48.0274 12.005 47.4219 11.559 46.5216ZM14.3894 47.6688C16.6734 48.3857 19.1187 48.2759 21.4872 48.2681C26.3483 48.1384 31.2182 48.3444 36.0751 48.1381C39.3132 48.0287 42.5725 47.9893 45.7642 47.3503C47.705 46.9829 49.8434 46.6549 51.2963 45.1819C51.845 44.6785 52.0296 43.9274 52.1209 43.2196C52.2908 41.8546 52.2935 40.4773 52.3063 39.109C52.285 35.6278 52.6512 32.1569 52.5266 28.6774C52.4189 24.565 52.3732 20.3955 51.297 16.3976C50.8926 14.8612 50.5055 13.1876 49.3146 12.0461C48.7654 11.4278 47.8828 11.3975 47.1204 11.359C42.0983 11.3109 37.0569 11.2964 32.0707 11.8994C28.5213 12.3402 24.9294 12.4587 21.4107 13.1418C18.8745 13.5483 16.4446 14.3891 13.9726 15.0574C12.9877 15.3609 11.9528 15.8343 11.3679 16.7237C10.8325 17.8871 10.8154 19.2114 10.8334 20.4762C10.8626 22.3628 10.6481 24.241 10.748 26.1258C10.9185 29.6394 10.852 33.1617 11.118 36.6703C11.3136 39.1435 11.2529 41.6591 11.8552 44.0762C12.2567 45.4898 12.8256 47.1962 14.3894 47.6688Z" fill="#828282"/>
<path d="M34.1785 47.7443C33.4294 47.1135 32.8136 46.2932 32.5632 45.3287C33.1827 46.0759 33.7515 46.8756 34.1785 47.7443Z" fill="#828282"/>
<path d="M35.309 46.9202C34.7449 46.6926 34.2758 46.2775 33.9418 45.7765C34.5431 45.9503 34.9818 46.4035 35.309 46.9202Z" fill="#828282"/>
<path d="M49.9858 42.3201C49.6424 41.614 49.3721 40.8792 49.0793 40.1533C48.8268 39.4962 48.4686 38.8352 48.5779 38.1072C49.166 39.4668 49.8934 40.8171 49.9858 42.3201Z" fill="#828282"/>
<path d="M50.0131 37.4953L50.1513 37.4996C49.8331 36.6597 49.3462 35.8864 49.1348 35.0044C50.1105 36.0285 50.5333 37.4468 50.9452 38.7715C50.6772 38.6684 50.5849 37.4459 50.2375 37.883C50.239 38.7108 50.7698 39.4472 50.7949 40.2852C50.1554 38.8611 49.1664 37.4901 49.0688 35.8914C49.4534 36.3724 49.4469 37.2294 50.0131 37.4953Z" fill="#828282"/>
<path d="M51.3421 28.277C50.4891 26.8719 49.5608 25.4899 48.9925 23.9333C50.0098 25.228 50.8232 26.714 51.3421 28.277Z" fill="#828282"/>
<path d="M48.3177 20.7227C49.3192 22.0758 50.1494 23.5552 50.6895 25.1555C49.8051 23.7366 48.7431 22.3617 48.3177 20.7227Z" fill="#828282"/>
<path d="M50.6017 23.038C49.667 21.5411 48.5906 20.1132 47.8957 18.4827C49.2583 19.6477 50.0236 21.3744 50.6017 23.038Z" fill="#828282"/>
<path d="M48.5341 16.7567C49.1907 17.7958 49.7786 18.9076 50.1068 20.1023C49.2696 18.6713 48.3244 17.296 47.593 15.8038C47.965 16.055 48.2963 16.3679 48.5341 16.7567Z" fill="#828282"/>
<path d="M31.6568 32.696C31.0808 32.792 30.2648 32.84 29.2088 32.84C28.1528 32.84 27.4328 32.664 27.0488 32.312C26.6648 31.96 26.4728 31.2 26.4728 30.032C26.4728 28.848 26.5608 27.552 26.7368 26.144C26.9128 24.736 27.1048 23.704 27.3128 23.048C27.5368 22.376 27.9688 22.04 28.6088 22.04C29.0408 22.04 29.2888 22.224 29.3528 22.592C29.3528 22.688 29.3528 22.84 29.3528 23.048C29.3528 23.256 29.3048 23.552 29.2088 23.936C28.8248 26.752 28.6328 28.76 28.6328 29.96C28.6328 30.248 28.6408 30.488 28.6568 30.68C28.9448 30.744 29.3288 30.776 29.8088 30.776C30.3048 30.776 30.9288 30.728 31.6808 30.632C31.7128 30.296 31.7288 29.848 31.7288 29.288C31.7288 28.712 31.7368 28.232 31.7528 27.848C31.7688 27.464 31.8248 27.192 31.9208 27.032C32.0168 26.872 32.2888 26.792 32.7368 26.792C33.2008 26.792 33.4888 26.872 33.6008 27.032C33.7288 27.192 33.7928 27.416 33.7928 27.704C33.7928 27.976 33.7688 28.56 33.7208 29.456C33.6728 30.336 33.6488 32.832 33.6488 36.944C33.6488 37.664 33.2968 38.024 32.5928 38.024C32.5608 38.024 32.5288 38.024 32.4968 38.024C31.9048 38.024 31.6088 37.536 31.6088 36.56L31.6088 35.24L31.6568 32.696Z" fill="#828282"/>
</svg>
