<svg width="66" height="64" viewBox="0 0 66 64" fill="none" xmlns="http://www.w3.org/2000/svg">
<path d="M11.0582 46.5216C9.98639 44.4461 9.79494 42.0822 9.68971 39.7886C9.56175 36.9431 9.32483 34.1013 9.3002 31.2542C9.29196 28.2179 8.9816 25.1899 9.14405 22.1581C9.25942 20.045 8.80261 17.7661 9.84617 15.8153C10.8125 14.4101 12.5864 13.9324 14.1556 13.5289C14.6727 13.3902 15.1977 13.2549 15.7126 13.1106C19.9106 11.827 24.2979 11.3362 28.6436 10.8553C33.9121 10.7867 39.1616 10.3734 44.4292 10.253C45.4928 10.2314 46.5646 10.1153 47.6333 10.2222C48.4652 10.3051 49.1415 10.8668 49.833 11.2855C50.8494 11.9022 51.4205 12.988 52.1754 13.8644C53.1656 15.222 54.742 16.2701 55.0243 18.0242C55.5097 19.8483 55.5928 21.7397 55.7321 23.6089C55.797 25.5531 56.0394 27.486 56.1122 29.4337C56.304 33.265 56.0478 37.097 55.9543 40.9299C55.7834 43.1824 55.7549 45.5157 54.85 47.6205C54.5238 48.408 53.8122 48.9103 53.1535 49.3984C52.0061 50.2291 50.5612 50.4206 49.2634 50.9193C47.3809 51.616 45.3691 51.7375 43.4017 52.0046C41.3106 52.2877 39.1982 52.2859 37.1106 52.5612C35.3499 52.7924 33.5687 52.823 31.7994 52.9336C27.3967 53.3522 22.9094 53.5563 18.5278 52.7598C17.6232 52.6078 16.6101 52.642 15.8462 52.0562C14.6645 51.185 13.7703 50.0049 12.8872 48.8529C12.3342 48.0274 11.5042 47.4219 11.0582 46.5216ZM13.8887 47.6688C16.1727 48.3857 18.618 48.2759 20.9865 48.2681C25.8476 48.1384 30.7175 48.3444 35.5743 48.1381C38.8125 48.0287 42.0717 47.9893 45.2635 47.3503C47.2043 46.9829 49.3426 46.6549 50.7955 45.1819C51.3443 44.6785 51.5289 43.9274 51.6201 43.2196C51.7901 41.8546 51.7928 40.4773 51.8055 39.109C51.7843 35.6278 52.1504 32.1569 52.0259 28.6774C51.9182 24.565 51.8724 20.3955 50.7962 16.3976C50.3918 14.8612 50.0047 13.1876 48.8139 12.0461C48.2647 11.4278 47.3821 11.3975 46.6196 11.359C41.5975 11.3109 36.5562 11.2964 31.5699 11.8994C28.0206 12.3402 24.4287 12.4587 20.9099 13.1418C18.3738 13.5483 15.9438 14.3891 13.4718 15.0574C12.487 15.3609 11.4521 15.8343 10.8671 16.7237C10.3318 17.8871 10.3147 19.2114 10.3326 20.4762C10.3618 22.3628 10.1473 24.241 10.2473 26.1258C10.4178 29.6394 10.3513 33.1617 10.6173 36.6703C10.8128 39.1435 10.7522 41.6591 11.3545 44.0762C11.756 45.4898 12.3249 47.1962 13.8887 47.6688Z" fill="#828282"/>
<path d="M33.6778 47.7443C32.9287 47.1135 32.3128 46.2932 32.0625 45.3287C32.682 46.0759 33.2508 46.8756 33.6778 47.7443Z" fill="#828282"/>
<path d="M34.8082 46.9202C34.2442 46.6926 33.7751 46.2775 33.4411 45.7765C34.0424 45.9503 34.481 46.4035 34.8082 46.9202Z" fill="#828282"/>
<path d="M49.485 42.3201C49.1416 41.614 48.8714 40.8792 48.5786 40.1533C48.326 39.4962 47.9679 38.8352 48.0772 38.1072C48.6653 39.4668 49.3927 40.8171 49.485 42.3201Z" fill="#828282"/>
<path d="M49.5124 37.4953L49.6505 37.4996C49.3323 36.6597 48.8454 35.8864 48.6341 35.0044C49.6097 36.0285 50.0326 37.4468 50.4445 38.7715C50.1764 38.6684 50.0842 37.4459 49.7368 37.883C49.7383 38.7108 50.2691 39.4472 50.2942 40.2852C49.6546 38.8611 48.6656 37.4901 48.568 35.8914C48.9526 36.3724 48.9462 37.2294 49.5124 37.4953Z" fill="#828282"/>
<path d="M50.8414 28.277C49.9884 26.8719 49.0601 25.4899 48.4918 23.9333C49.5091 25.228 50.3225 26.714 50.8414 28.277Z" fill="#828282"/>
<path d="M47.817 20.7227C48.8184 22.0758 49.6487 23.5552 50.1888 25.1555C49.3044 23.7366 48.2424 22.3617 47.817 20.7227Z" fill="#828282"/>
<path d="M50.1009 23.038C49.1663 21.5411 48.0899 20.1132 47.3949 18.4827C48.7575 19.6477 49.5229 21.3744 50.1009 23.038Z" fill="#828282"/>
<path d="M48.0334 16.7567C48.69 17.7958 49.2779 18.9076 49.606 20.1023C48.7689 18.6713 47.8237 17.296 47.0923 15.8038C47.4642 16.055 47.7956 16.3679 48.0334 16.7567Z" fill="#828282"/>
<path d="M28.0121 27.656C28.6681 27.416 29.3001 27.296 29.9081 27.296C30.5161 27.296 31.1001 27.392 31.6601 27.584C32.2361 27.776 32.7561 28.072 33.2201 28.472C33.7001 28.872 34.0841 29.424 34.3721 30.128C34.6601 30.816 34.8041 31.616 34.8041 32.528C34.8041 34.064 34.3561 35.36 33.4601 36.416C32.5641 37.472 31.5241 38 30.3401 38C29.1721 38 28.1401 37.736 27.2441 37.208C26.3641 36.664 25.9241 36.072 25.9241 35.432C25.9241 35.128 25.9561 34.904 26.0201 34.76C26.1001 34.6 26.2361 34.472 26.4281 34.376C26.6201 34.28 26.7881 34.232 26.9321 34.232C27.0921 34.232 27.3001 34.328 27.5561 34.52C27.8281 34.696 28.2041 34.952 28.6841 35.288C29.1641 35.624 29.7161 35.792 30.3401 35.792C30.9641 35.792 31.5161 35.48 31.9961 34.856C32.4761 34.216 32.7161 33.52 32.7161 32.768C32.7161 30.608 31.7481 29.528 29.8121 29.528C29.3961 29.528 28.9081 29.568 28.3481 29.648C27.8041 29.728 27.4441 29.776 27.2681 29.792C27.1081 29.808 26.8841 29.752 26.5961 29.624C26.2601 29.304 26.0921 28.288 26.0921 26.576C26.0921 24.848 26.1321 23.736 26.2121 23.24C26.2921 22.728 26.4281 22.432 26.6201 22.352C26.9561 22.208 27.9561 22.136 29.6201 22.136C31.3001 22.136 32.6441 22.296 33.6521 22.616C33.9721 22.808 34.1321 23.088 34.1321 23.456C34.1321 23.808 34.0281 24.096 33.8201 24.32C33.6281 24.544 33.4201 24.632 33.1961 24.584C31.8681 24.296 30.5321 24.152 29.1881 24.152C28.7721 24.152 28.3561 24.168 27.9401 24.2C27.9401 24.824 27.9641 25.976 28.0121 27.656Z" fill="#828282"/>
</svg>
