<svg width="37" height="30" viewBox="0 0 37 30" fill="none" xmlns="http://www.w3.org/2000/svg">
<path d="M27.4444 28.2439C27.8194 28.2892 28.2964 28.6451 28.564 28.2051C30.3588 26.1311 31.8596 23.8118 33.0889 21.3563C33.1839 21.1184 33.2149 20.864 33.1921 20.6041C29.8532 17.0709 26.2416 13.7458 22.1146 11.1714C19.5539 9.20465 16.5006 8.04023 13.5011 6.93876C13.4994 5.63765 13.6596 4.2958 13.3002 3.03494C13.0758 2.29819 12.1202 2.55571 11.6138 2.82834C9.97029 3.83032 8.45306 5.05857 7.14991 6.50246C6.14229 7.63885 4.8652 8.53914 4.09099 9.87677C3.60621 10.6963 2.95783 11.3907 2.37778 12.1462C3.60431 13.6917 5.16501 14.9008 6.465 16.38C7.25749 17.2261 7.94062 18.2546 9.00721 18.7566C9.55216 19.0802 10.0977 18.6639 10.5802 18.4183C10.7103 18.4449 10.9852 18.4962 11.1153 18.5227C11.3824 18.1975 11.6433 17.87 11.8896 17.5443C16.7812 20.4157 21.7075 23.458 25.5016 27.7845C25.9637 28.408 26.7643 28.3806 27.4444 28.2439ZM8.30181 7.05754C9.32173 5.92569 10.5273 4.99178 11.8186 4.20452C11.9927 5.36099 11.5056 6.9628 12.6244 7.72116C13.3809 7.90741 14.19 7.87594 14.9075 8.2058C17.2636 9.15566 19.4153 10.5258 21.5641 11.866C23.9703 13.3805 26.1021 15.2964 28.2094 17.2033C29.4607 18.3412 30.6338 19.558 31.701 20.8721C30.6291 22.8828 29.451 24.8399 28.0202 26.6103C26.1936 23.8874 23.8553 21.5646 21.3287 19.5243C19.6369 18.159 17.7654 17.0146 15.7882 16.1186C14.4899 15.5812 13.6334 14.3593 12.3909 13.7277C11.9819 13.6986 11.5846 13.8463 11.1913 13.9453C11.0647 14.969 10.8657 15.9804 10.6337 16.9867C9.5732 15.9194 8.57768 14.7898 7.69425 13.5652C6.92199 12.4751 5.92089 11.5877 5.06053 10.5656C5.99179 9.2573 7.2339 8.2435 8.30181 7.05754Z" fill="#7345E4"/>
</svg>
