<svg width="151" height="58" viewBox="0 0 151 58" fill="none" xmlns="http://www.w3.org/2000/svg">
<rect width="148" height="56" transform="translate(1.84204 1.5)" fill="#F8DDEA"/>
<path d="M149.549 56.3129C125.718 56.3129 102.551 56.2669 78.2663 56.2669C67.8395 56.2669 58.3654 56.32 47.9013 56.32C41.1139 56.32 34.3264 56.5483 27.5389 56.5483C20.2241 56.5483 9.89214 56.0345 2.6908 56.32" stroke="#AF4679" stroke-width="2" stroke-linecap="round" stroke-linejoin="round"/>
<path d="M149.549 56.4839C149.49 56.1834 149.549 48.0607 149.549 43.5023C148.859 39.1852 149.256 34.745 149.256 29.8376C149.256 21.381 149.256 9.93439 149.256 1.50022" stroke="#AF4679" stroke-width="2" stroke-linecap="round" stroke-linejoin="round"/>
<path d="M148.162 3.1582C134.258 3.1582 120.882 3.1582 105.924 3.1582C93.4169 3.1582 81.7335 3.1582 68.9813 3.1582C63.0128 3.1582 56.3386 3.1582 50.3701 3.1582C44.594 3.1582 35.45 3.1582 28.7915 3.1582C17.525 3.1582 7.69312 3.1582 1.91864 3.1582" stroke="#AF4679" stroke-width="2" stroke-linecap="round" stroke-linejoin="round"/>
<path d="M1.84212 56.8252C1.84212 52.2222 1.84213 47.1734 1.84212 42.6565C1.84212 37.7478 2.18162 34.5601 1.84212 29.1625C1.84211 20.1873 1.84213 11.6967 1.84212 2.84929" stroke="#AF4679" stroke-width="2" stroke-linecap="round" stroke-linejoin="round"/>
<path d="M1.84208 4.8735C2.4446 19.1476 2.52112 44.006 2.52112 57.5" stroke="#AF4679" stroke-linecap="round" stroke-linejoin="round"/>
<path d="M149.363 2.17459C149.363 16.3518 148.174 35.9095 149.702 56.8252" stroke="#AF4679" stroke-width="0.5" stroke-linecap="round" stroke-linejoin="round"/>
<path d="M148.963 2.84943C149.549 16.0018 149.842 42.6865 149.842 56.1421" stroke="#AF4679" stroke-linecap="round" stroke-linejoin="round"/>
<g clip-path="url(#clip0_764_21728)">
<path fill-rule="evenodd" clip-rule="evenodd" d="M28.81 40.92C28.28 40.74 27.62 40.56 26.9 40.38C24.9 39.87 22.35 39.38 20.81 38.92C20.4681 38.7937 20.1341 38.6468 19.81 38.48L20.25 37.41C20.41 36.97 20.59 36.41 20.78 35.71C21.17 34.34 21.59 32.71 21.86 31.78C22.3048 30.1612 22.6389 28.5141 22.86 26.85C23.19 24.45 23.34 22.02 23.55 19.63L31 20.73C31.54 20.81 32.28 20.86 33 20.98L33.53 21.1L32.81 22.61C32.4935 23.1776 32.2226 23.7694 32 24.38C31.8671 24.7484 31.8671 25.1516 32 25.52C32.1316 25.7794 32.3464 25.9871 32.61 26.11C33.0534 26.2897 33.5226 26.3977 34 26.43C35 26.51 36 26.43 37 26.57C37.2868 26.603 37.5708 26.6565 37.85 26.73V27.57C37.77 28.57 37.58 29.63 37.58 29.63C37.5756 29.7091 37.5999 29.7872 37.6483 29.8499C37.6967 29.9127 37.7661 29.9559 37.8438 29.9716C37.9215 29.9874 38.0022 29.9747 38.0713 29.9359C38.1404 29.897 38.1932 29.8346 38.22 29.76C38.22 29.76 38.53 28.37 38.64 27.29C38.7048 26.8926 38.7048 26.4874 38.64 26.09C38.468 25.7039 38.2533 25.3383 38 25C37.49 24.17 36.77 23.18 36.46 22.74C36.15 22.3 35.77 21.62 35.35 21.1C35.1365 20.8361 34.8835 20.6067 34.6 20.42C34.2572 20.2283 33.8858 20.0933 33.5 20.02C32.71 19.8 31.78 19.77 31.14 19.68C30.35 19.59 29.55 19.52 28.75 19.45C26.9 19.29 25.05 19.18 23.2 19C22.64 18.93 23.28 19.17 22 26.71C21.7271 28.3177 21.3564 29.9074 20.89 31.47L19.32 37.07C19.1224 37.4796 18.9488 37.9003 18.8 38.33C18.7612 38.5146 18.7612 38.7053 18.8 38.89C18.8546 39.071 18.9715 39.2269 19.13 39.33C19.4005 39.4854 19.6894 39.6063 19.99 39.69C21.88 40.25 26.39 40.86 28.64 41.54C28.7209 41.565 28.8084 41.557 28.8834 41.5176C28.9584 41.4783 29.0147 41.4108 29.04 41.33C29.0522 41.288 29.0558 41.2439 29.0508 41.2005C29.0458 41.157 29.0322 41.115 29.0108 41.0769C28.9894 41.0387 28.9606 41.0052 28.9262 40.9783C28.8917 40.9513 28.8522 40.9315 28.81 40.92ZM34.66 22C35.03 22.46 35.37 23 35.66 23.34C35.95 23.68 36.73 24.69 37.27 25.48C37.39 25.66 37.5 25.82 37.59 25.97L37.13 25.86C36.13 25.64 35.13 25.6 34.13 25.42C33.8801 25.3873 33.6329 25.3372 33.39 25.27C33.25 25.27 33.09 25.21 33.04 25.1C33.0029 24.8769 33.0306 24.6478 33.12 24.44C33.27 23.86 33.51 23.24 33.6 22.94L34.12 21.4C34.3305 21.5703 34.5127 21.7728 34.66 22Z" fill="#AF4679"/>
<path fill-rule="evenodd" clip-rule="evenodd" d="M40.08 32.55C39.7063 32.1801 39.2547 31.8984 38.7581 31.7254C38.2616 31.5524 37.7327 31.4925 37.21 31.55C36.3142 31.6894 35.4832 32.1014 34.83 32.73C33.9494 33.6157 33.1681 34.5948 32.5 35.65C32.1361 36.1394 31.8021 36.6503 31.5 37.18C31.2936 37.5519 31.1261 37.9439 31 38.35C30.7267 39.1873 30.692 40.0842 30.9 40.94C31.0828 41.5653 31.4702 42.1111 32 42.49C32.3148 42.7536 32.6974 42.9234 33.1041 42.98C33.5108 43.0366 33.9252 42.9777 34.3 42.81C35.61 42.24 36.66 40.32 37.37 39.35L38.27 38C38.4939 37.6283 38.675 37.2325 38.81 36.82C38.9156 36.5237 38.9795 36.214 39 35.9C39.0295 35.5939 38.9673 35.2859 38.8213 35.0153C38.6753 34.7446 38.452 34.5235 38.18 34.38C37.9138 34.2538 37.6197 34.1976 37.3257 34.2169C37.0317 34.2361 36.7475 34.3302 36.5 34.49C36.1915 34.6872 35.9206 34.9378 35.7 35.23C35.3999 35.6285 35.126 36.0461 34.88 36.48C34.7 36.77 34.54 37.07 34.37 37.37C34.2 37.67 33.93 38.28 33.71 38.74C33.693 38.7734 33.6829 38.8099 33.6803 38.8472C33.6777 38.8846 33.6826 38.9221 33.6947 38.9575C33.7068 38.993 33.7259 39.0256 33.7509 39.0535C33.7758 39.0814 33.8061 39.1041 33.84 39.12C33.8734 39.137 33.9098 39.1471 33.9472 39.1497C33.9845 39.1524 34.022 39.1475 34.0575 39.1354C34.0929 39.1232 34.1255 39.1041 34.1534 39.0792C34.1814 39.0542 34.204 39.0239 34.22 38.99C34.45 38.55 34.67 38.1 34.92 37.67C35.17 37.24 35.24 37.1 35.42 36.83C35.6689 36.4291 35.9393 36.0418 36.23 35.67C36.4109 35.4548 36.6274 35.2721 36.87 35.13C37.01 35.0403 37.1702 34.9869 37.3361 34.9747C37.502 34.9624 37.6683 34.9918 37.82 35.06C37.9487 35.1489 38.0504 35.2715 38.1139 35.4144C38.1775 35.5573 38.2003 35.715 38.18 35.87C38.148 36.155 38.0773 36.4342 37.97 36.7C37.8508 36.979 37.7069 37.2467 37.54 37.5L36.62 38.77C35.9865 39.8025 35.2162 40.7443 34.33 41.57C34.098 41.7746 33.7993 41.8875 33.49 41.8875C33.1807 41.8875 32.882 41.7746 32.65 41.57C32.2565 41.2528 32.0048 40.7925 31.95 40.29C31.8782 39.739 31.9294 39.1789 32.1 38.65C32.2077 38.3041 32.3484 37.9692 32.52 37.65C32.7871 37.1556 33.0844 36.6781 33.41 36.22C34.0072 35.2082 34.7149 34.2658 35.52 33.41C36.0234 32.8947 36.6725 32.5458 37.38 32.41C37.7687 32.3581 38.164 32.393 38.5375 32.5123C38.911 32.6317 39.2534 32.8324 39.54 33.1C39.8484 33.3615 40.0973 33.686 40.2698 34.0516C40.4423 34.4173 40.5344 34.8158 40.54 35.22C40.501 35.8317 40.3625 36.4329 40.13 37C39.8118 37.8231 39.4341 38.6218 39 39.39C38.9576 39.467 38.9474 39.5576 38.9718 39.642C38.9962 39.7264 39.0531 39.7976 39.13 39.84C39.2069 39.8825 39.2975 39.8926 39.3819 39.8682C39.4663 39.8439 39.5376 39.787 39.58 39.71C40.0587 38.906 40.483 38.0708 40.85 37.21C41.095 36.607 41.2434 35.9692 41.29 35.32C41.2985 34.7986 41.1949 34.2814 40.9861 33.8035C40.7774 33.3256 40.4683 32.8981 40.08 32.55Z" fill="#AF4679"/>
</g>
<path d="M56.8164 21.957L57.9492 21.7227C58.1836 23.5586 58.3268 26.1107 58.3789 29.3789C58.444 32.6341 58.5091 34.7891 58.5742 35.8438C58.457 36.2474 58.2292 36.4492 57.8906 36.4492C57.6562 36.4492 57.4284 36.3516 57.207 36.1562C56.9987 35.9609 56.8685 35.7266 56.8164 35.4531C56.8294 34.9844 56.8359 34.2031 56.8359 33.1094V29.2617C56.5495 29.2747 56.1458 29.3073 55.625 29.3594C55.1172 29.3984 54.6484 29.431 54.2188 29.457C53.8021 29.4831 53.4049 29.4961 53.0273 29.4961C52.6888 29.4961 52.4414 29.4896 52.2852 29.4766C52.3112 30.2708 52.3568 31.3971 52.4219 32.8555C52.487 34.3008 52.5326 35.2969 52.5586 35.8438C52.4414 36.2474 52.2135 36.4492 51.875 36.4492C51.6406 36.4492 51.4128 36.3516 51.1914 36.1562C50.9831 35.9609 50.8529 35.7266 50.8008 35.4531C50.8398 34.3333 50.8724 32.1589 50.8984 28.9297C50.9375 25.7005 51.0026 23.2982 51.0938 21.7227L51.9727 21.918C51.9727 21.957 51.9727 22.0221 51.9727 22.1133C51.9857 22.1914 51.9922 22.2565 51.9922 22.3086C52.1615 25.5117 52.2591 27.5169 52.2852 28.3242C52.7279 28.2852 53.1966 28.2461 53.6914 28.207C54.1992 28.1549 54.7526 28.1029 55.3516 28.0508C55.9635 27.9857 56.4388 27.9401 56.7773 27.9141C56.7904 27.9141 56.7969 27.849 56.7969 27.7188C56.7969 27.5885 56.7969 27.0612 56.7969 26.1367C56.8099 25.2122 56.8164 23.819 56.8164 21.957ZM59.8958 31.8398C59.8958 31.319 59.9479 30.7396 60.052 30.1016C60.1692 29.4635 60.3385 28.793 60.5598 28.0898C60.7812 27.3867 61.1132 26.8008 61.5559 26.332C61.9986 25.8633 62.513 25.6289 63.0989 25.6289C64.3489 25.6289 65.3515 26.1953 66.1067 27.3281C66.8619 28.4479 67.2395 29.6979 67.2395 31.0781C67.2395 31.6641 67.1744 32.25 67.0442 32.8359C66.927 33.4089 66.7382 33.9753 66.4778 34.5352C66.2174 35.0951 65.8398 35.5638 65.345 35.9414C64.8632 36.306 64.2968 36.5143 63.6458 36.5664C62.4479 36.4102 61.5234 35.9023 60.8723 35.043C60.2213 34.1706 59.8958 33.1029 59.8958 31.8398ZM63.2161 26.6445C62.7604 26.6966 62.3763 27.1133 62.0638 27.8945C61.7513 28.6758 61.5494 29.4375 61.4583 30.1797C61.3671 30.9089 61.3216 31.5534 61.3216 32.1133C61.3216 32.8424 61.5429 33.5195 61.9856 34.1445C62.4414 34.7565 62.9492 35.0625 63.5091 35.0625C63.9127 35.0625 64.2773 34.9062 64.6028 34.5938C64.9283 34.2812 65.1822 33.8971 65.3645 33.4414C65.5598 32.9727 65.7031 32.5039 65.7942 32.0352C65.8984 31.5664 65.9505 31.1497 65.9505 30.7852C65.9505 29.7174 65.7096 28.7865 65.2278 27.9922C64.746 27.1979 64.0755 26.7487 63.2161 26.6445ZM77.3892 25.8828L78.6978 26.0586C78.4504 27.0872 78.0598 28.6562 77.5259 30.7656C76.9921 32.862 76.5754 34.5677 76.2759 35.8828C75.7681 35.974 75.3319 36.0195 74.9673 36.0195C74.6418 36.0195 74.3423 35.9935 74.0689 35.9414L72.9752 32.1133L72.0377 35.9609C71.5298 36.0521 71.0871 36.0977 70.7095 36.0977C70.397 36.0977 70.1041 36.0716 69.8306 36.0195C69.6353 35.3424 69.3228 34.2747 68.8931 32.8164C68.4765 31.3451 68.1184 30.069 67.8189 28.9883C67.5324 27.9076 67.272 26.8724 67.0377 25.8828L68.3267 25.9805L70.8658 34.1055C71.2955 32.8555 71.7447 31.3125 72.2134 29.4766C71.8098 27.9792 71.4973 26.7552 71.2759 25.8047L72.565 25.9023L75.1041 34.0273C75.3124 33.4023 75.5338 32.6992 75.7681 31.918C76.0025 31.1367 76.1913 30.4727 76.3345 29.9258C76.4778 29.3659 76.6666 28.6432 76.9009 27.7578C77.1353 26.8594 77.2981 26.2344 77.3892 25.8828ZM89.837 26.5469L90.0519 27.4258C89.7003 27.4518 89.1599 27.5234 88.4308 27.6406C87.7016 27.7448 87.1547 27.8099 86.7902 27.8359C86.8553 28.2917 86.8943 28.8906 86.9073 29.6328C86.9204 30.375 86.9334 31.0195 86.9464 31.5664C86.9724 32.1003 87.031 32.6406 87.1222 33.1875C87.2264 33.7214 87.4282 34.1315 87.7277 34.418C88.0402 34.7044 88.4568 34.8477 88.9777 34.8477C89.3683 34.8477 89.8566 34.7565 90.4425 34.5742C90.6899 35.056 90.8722 35.4076 90.9894 35.6289C89.9607 35.9935 88.9191 36.1758 87.8644 36.1758C87.4738 36.1758 87.1352 36.0586 86.8488 35.8242C86.5623 35.5898 86.3409 35.2969 86.1847 34.9453C86.0284 34.5938 85.8982 34.151 85.7941 33.6172C85.7029 33.0703 85.6443 32.556 85.6183 32.0742C85.5922 31.5924 85.5792 31.0391 85.5792 30.4141C85.5792 30.0755 85.5792 29.6068 85.5792 29.0078C85.5922 28.4089 85.5988 27.9987 85.5988 27.7773C85.4685 27.7904 85.1626 27.8034 84.6808 27.8164C84.199 27.8164 83.9191 27.8164 83.8409 27.8164C83.7498 26.944 83.7042 26.4948 83.7042 26.4688C83.7954 26.4948 83.9451 26.5078 84.1534 26.5078C84.2706 26.5078 84.4594 26.5013 84.7198 26.4883C84.9803 26.4622 85.1756 26.4492 85.3058 26.4492C85.3579 26.4492 85.423 26.4557 85.5011 26.4688C85.5922 26.4688 85.6508 26.4688 85.6769 26.4688C85.729 25.0365 85.7876 23.8711 85.8527 22.9727L86.7316 23.1875C86.7446 23.5 86.7511 23.8385 86.7511 24.2031C86.7641 24.5547 86.7706 24.9518 86.7706 25.3945C86.7836 25.8242 86.7902 26.1562 86.7902 26.3906C87.1287 26.4167 87.6365 26.4427 88.3136 26.4688C88.9907 26.4948 89.4985 26.5208 89.837 26.5469ZM90.6703 31.8398C90.6703 31.319 90.7224 30.7396 90.8266 30.1016C90.9437 29.4635 91.113 28.793 91.3344 28.0898C91.5557 27.3867 91.8878 26.8008 92.3305 26.332C92.7732 25.8633 93.2875 25.6289 93.8734 25.6289C95.1234 25.6289 96.126 26.1953 96.8812 27.3281C97.6365 28.4479 98.0141 29.6979 98.0141 31.0781C98.0141 31.6641 97.949 32.25 97.8187 32.8359C97.7016 33.4089 97.5128 33.9753 97.2523 34.5352C96.9919 35.0951 96.6143 35.5638 96.1195 35.9414C95.6378 36.306 95.0714 36.5143 94.4203 36.5664C93.2224 36.4102 92.2979 35.9023 91.6469 35.043C90.9958 34.1706 90.6703 33.1029 90.6703 31.8398ZM93.9906 26.6445C93.5349 26.6966 93.1508 27.1133 92.8383 27.8945C92.5258 28.6758 92.324 29.4375 92.2328 30.1797C92.1417 30.9089 92.0961 31.5534 92.0961 32.1133C92.0961 32.8424 92.3174 33.5195 92.7602 34.1445C93.2159 34.7565 93.7237 35.0625 94.2836 35.0625C94.6872 35.0625 95.0518 34.9062 95.3773 34.5938C95.7029 34.2812 95.9568 33.8971 96.1391 33.4414C96.3344 32.9727 96.4776 32.5039 96.5687 32.0352C96.6729 31.5664 96.725 31.1497 96.725 30.7852C96.725 29.7174 96.4841 28.7865 96.0023 27.9922C95.5206 27.1979 94.85 26.7487 93.9906 26.6445ZM104.935 21.9766L105.813 21.7422C105.813 22.1589 105.82 22.3932 105.833 22.4453C106.575 21.9505 107.617 21.7031 108.958 21.7031C110.403 21.7031 111.484 22.1589 112.2 23.0703C112.916 23.9688 113.274 25.2318 113.274 26.8594C113.274 28.3047 112.923 29.5026 112.22 30.4531C111.517 31.4036 110.455 31.8789 109.036 31.8789C108.802 31.8789 107.864 31.8008 106.224 31.6445C106.25 32.5951 106.302 34.0729 106.38 36.0781C106.263 36.4818 106.035 36.6836 105.696 36.6836C105.462 36.6836 105.234 36.5859 105.013 36.3906C104.804 36.2083 104.674 35.9805 104.622 35.707C104.661 34.6133 104.7 32.4844 104.739 29.3203C104.791 26.1562 104.856 23.7083 104.935 21.9766ZM106.009 23.7539L106.165 29.8477C106.881 30.2383 107.708 30.4336 108.645 30.4336C109.544 30.4336 110.306 30.0951 110.931 29.418C111.556 28.7409 111.868 27.9141 111.868 26.9375C111.868 25.8828 111.543 24.9323 110.892 24.0859C110.241 23.2396 109.427 22.8164 108.45 22.8164C107.656 22.8164 106.842 23.1289 106.009 23.7539ZM115.026 22.6016L115.924 22.7969L116.354 35.4336C116.237 35.8372 116.009 36.0391 115.67 36.0391C115.436 36.0391 115.208 35.9479 114.987 35.7656C114.778 35.5703 114.648 35.3359 114.596 35.0625L115.026 22.6016ZM118.378 27.5625L117.988 26.5664C118.326 26.2279 118.756 25.9609 119.277 25.7656C119.798 25.5573 120.312 25.4531 120.82 25.4531C123.02 25.4531 124.121 27.3542 124.121 31.1562C124.121 31.6771 124.088 32.4453 124.023 33.4609C123.971 34.4766 123.945 35.2383 123.945 35.7461C123.841 36.1497 123.639 36.3516 123.339 36.3516C123.105 36.3516 122.89 36.2344 122.695 36C122.5 35.7656 122.402 35.5052 122.402 35.2188C122.402 35.1276 122.408 35.0625 122.421 35.0234C121.614 35.8047 120.755 36.1953 119.843 36.1953C119.153 36.1953 118.548 35.9479 118.027 35.4531C117.519 34.9453 117.265 34.3333 117.265 33.6172C117.265 32.4062 117.734 31.3125 118.671 30.3359C119.622 29.3594 120.696 28.8711 121.894 28.8711C121.946 28.8711 121.998 28.8776 122.05 28.8906C122.102 28.8906 122.161 28.8971 122.226 28.9102C122.304 28.9232 122.363 28.9297 122.402 28.9297C122.298 27.4062 121.692 26.6445 120.585 26.6445C119.934 26.6445 119.199 26.9505 118.378 27.5625ZM122.46 33.6758C122.487 32.7643 122.5 32.0742 122.5 31.6055C122.5 31.2148 122.487 30.668 122.46 29.9648H122.304C121.38 29.9779 120.533 30.3229 119.765 31C119.01 31.6771 118.632 32.4974 118.632 33.4609C118.632 33.8776 118.756 34.2096 119.003 34.457C119.264 34.7044 119.576 34.8281 119.941 34.8281C120.514 34.8281 121.354 34.444 122.46 33.6758ZM126.829 41.7812L125.618 41.0977C126.152 40.1732 127.096 38.4154 128.45 35.8242C127.395 34.8867 126.588 33.4674 126.028 31.5664C125.468 29.6654 125.13 27.7643 125.012 25.8633L126.145 25.9219C126.21 26.2344 126.347 26.9505 126.555 28.0703C126.777 29.1771 126.953 29.9974 127.083 30.5312C127.213 31.0651 127.441 31.7357 127.766 32.543C128.105 33.3372 128.489 34.0078 128.919 34.5547C130.729 31.0781 131.634 28.2266 131.634 26V25.7852C132.311 25.8893 132.818 26.013 133.157 26.1562C132.949 27.5234 132.623 28.9167 132.18 30.3359C131.738 31.7552 131.184 33.1875 130.52 34.6328C129.856 36.0651 129.264 37.2695 128.743 38.2461C128.235 39.2227 127.597 40.401 126.829 41.7812Z" fill="#AF4679"/>
<defs>
<clipPath id="clip0_764_21728">
<rect width="24" height="24" fill="white" transform="translate(18 19)"/>
</clipPath>
</defs>
</svg>
