<svg width="112" height="50" viewBox="0 0 112 50" fill="none" xmlns="http://www.w3.org/2000/svg">
<rect width="110" height="48" transform="translate(1 1.5)" fill="#F8DDEA"/>
<path d="M110.782 48.4823C93.0704 48.4823 75.8515 48.4428 57.8018 48.4428C50.0522 48.4428 43.0107 48.4883 35.2333 48.4883C30.1886 48.4883 25.1438 48.6841 20.0991 48.6841C14.6624 48.6841 6.98323 48.2437 1.63088 48.4884" stroke="#AF4679" stroke-width="2" stroke-linecap="round" stroke-linejoin="round"/>
<path d="M110.782 48.6289C110.738 48.3713 110.782 41.409 110.782 37.5019C110.269 33.8014 110.565 29.9956 110.565 25.7892C110.565 18.5407 110.565 8.72933 110.565 1.50004" stroke="#AF4679" stroke-width="2" stroke-linecap="round" stroke-linejoin="round"/>
<path d="M109.752 2.92139C99.4172 2.92139 89.4756 2.92139 78.3578 2.92139C69.0624 2.92139 60.3788 2.92139 50.9008 2.92139C46.4647 2.92139 41.5042 2.92139 37.0681 2.92139C32.7751 2.92139 25.9788 2.92139 21.03 2.92139C12.6562 2.92139 5.34875 2.92139 1.05691 2.92139" stroke="#AF4679" stroke-width="2" stroke-linecap="round" stroke-linejoin="round"/>
<path d="M1.00008 48.9219C1.00007 44.9765 1.00008 40.6489 1.00008 36.7773C1.00007 32.5698 1.2524 29.8375 1.00007 25.211C1.00006 17.518 1.00008 10.2403 1.00007 2.65682" stroke="#AF4679" stroke-width="2" stroke-linecap="round" stroke-linejoin="round"/>
<path d="M1.00004 4.39157C1.44786 16.6265 1.50473 37.9337 1.50473 49.5" stroke="#AF4679" stroke-linecap="round" stroke-linejoin="round"/>
<path d="M110.644 2.0785C110.644 14.2304 109.761 30.9942 110.896 48.9219" stroke="#AF4679" stroke-width="0.5" stroke-linecap="round" stroke-linejoin="round"/>
<path d="M110.347 2.65651C110.782 13.93 111 36.8026 111 48.3359" stroke="#AF4679" stroke-linecap="round" stroke-linejoin="round"/>
<path d="M26.8633 30.8125L27.1758 31.6133C26.5898 31.6003 25.9779 31.4115 25.3398 31.0469C24.7018 30.6823 24.1029 30.2266 23.543 29.6797C22.9961 29.1198 22.5013 28.5599 22.0586 28C21.6289 27.4271 21.2578 26.8672 20.9453 26.3203L19.4023 26.1445C19.4284 27.0951 19.4805 28.5729 19.5586 30.5781C19.4414 30.9818 19.2135 31.1836 18.875 31.1836C18.6406 31.1836 18.4128 31.0859 18.1914 30.8906C17.9831 30.7083 17.8529 30.4805 17.8008 30.207C17.8398 29.1133 17.8789 26.9844 17.918 23.8203C17.9701 20.6562 18.0352 18.2083 18.1133 16.4766L18.9922 16.2422C18.9922 16.6589 18.9987 16.8932 19.0117 16.9453C19.7539 16.4505 20.7956 16.2031 22.1367 16.2031C23.582 16.2031 24.6628 16.6589 25.3789 17.5703C26.0951 18.4688 26.4531 19.7318 26.4531 21.3594C26.4531 21.9583 26.3815 22.5378 26.2383 23.0977C26.0951 23.6445 25.8802 24.1589 25.5938 24.6406C25.3203 25.1224 24.9362 25.5195 24.4414 25.832C23.9466 26.1445 23.3802 26.3268 22.7422 26.3789C23.1979 27.3294 23.8099 28.2539 24.5781 29.1523C25.3464 30.0508 26.1081 30.6042 26.8633 30.8125ZM19.1875 18.2539L19.3438 24.3477C20.0599 24.7383 20.8867 24.9336 21.8242 24.9336C22.7227 24.9336 23.4844 24.5951 24.1094 23.918C24.7344 23.2409 25.0469 22.4141 25.0469 21.4375C25.0469 20.3828 24.7214 19.4323 24.0703 18.5859C23.4193 17.7396 22.6055 17.3164 21.6289 17.3164C20.8346 17.3164 20.0208 17.6289 19.1875 18.2539ZM33.6927 20.6953L34.6302 20.8711V21.0664C34.6302 21.9518 34.6822 23.4492 34.7864 25.5586C34.9036 27.668 35.0078 29.2956 35.0989 30.4414C34.8385 30.5456 34.5911 30.5977 34.3567 30.5977C34.1484 30.5977 33.914 30.5651 33.6536 30.5L33.4973 29.9922C32.664 30.4609 31.8697 30.6953 31.1145 30.6953C30.5546 30.6953 30.0664 30.5651 29.6497 30.3047C29.246 30.0443 28.9335 29.7253 28.7122 29.3477C28.4908 28.957 28.3151 28.4818 28.1848 27.9219C28.0546 27.349 27.97 26.8346 27.9309 26.3789C27.9049 25.9102 27.8919 25.3893 27.8919 24.8164C27.8919 23.1497 27.996 21.6198 28.2044 20.2266L29.0833 20.4219C29.1744 20.8516 29.22 21.3203 29.22 21.8281C29.22 22.1146 29.2005 22.6094 29.1614 23.3125C29.1354 24.0156 29.1223 24.5495 29.1223 24.9141C29.1223 25.5521 29.1484 26.1055 29.2005 26.5742C29.2656 27.0299 29.3763 27.4792 29.5325 27.9219C29.7018 28.3516 29.9557 28.6836 30.2942 28.918C30.6328 29.1523 31.0559 29.2695 31.5638 29.2695C32.1367 29.2695 32.7552 29.1393 33.4192 28.8789C33.4453 28.3971 33.4713 27.1667 33.4973 25.1875C33.5234 23.1953 33.5885 21.6979 33.6927 20.6953ZM36.8306 17.1016L37.7291 17.2969L38.1588 29.9336C38.0416 30.3372 37.8137 30.5391 37.4752 30.5391C37.2408 30.5391 37.0129 30.4479 36.7916 30.2656C36.5832 30.0703 36.453 29.8359 36.4009 29.5625L36.8306 17.1016ZM47.3514 28.6055L47.5467 29.4648C46.9738 29.6732 46.1209 29.9076 44.9881 30.168C43.8683 30.4154 43.035 30.5391 42.4881 30.5391C41.9282 30.5391 41.4399 30.3568 41.0233 29.9922C40.6066 29.6146 40.2941 29.1393 40.0858 28.5664C39.8774 27.9805 39.7212 27.4076 39.617 26.8477C39.5259 26.2747 39.4803 25.7148 39.4803 25.168C39.4803 21.9128 40.9517 20.2852 43.8944 20.2852C44.5975 20.2852 45.216 20.513 45.7498 20.9688C46.2837 21.4115 46.5506 21.9909 46.5506 22.707C46.5506 23.0977 46.4399 23.4427 46.2186 23.7422C46.0103 24.0417 45.7498 24.2826 45.4373 24.4648C45.1379 24.6341 44.7472 24.7904 44.2655 24.9336C43.7967 25.0768 43.3801 25.181 43.0155 25.2461C42.6509 25.3112 42.2147 25.3828 41.7069 25.4609C41.1991 25.5391 40.8475 25.5977 40.6522 25.6367C40.6652 26.0143 40.6847 26.3464 40.7108 26.6328C40.7498 26.9193 40.8149 27.2318 40.9061 27.5703C41.0103 27.8958 41.1405 28.1693 41.2967 28.3906C41.466 28.599 41.6939 28.7747 41.9803 28.918C42.2668 29.0612 42.6053 29.1328 42.9959 29.1328C43.4647 29.1328 44.0376 29.0938 44.7147 29.0156C45.3918 28.9245 45.9907 28.8333 46.5116 28.7422C47.0454 28.651 47.3254 28.6055 47.3514 28.6055ZM40.7303 24.4258C42.5011 23.918 43.953 23.3841 45.0858 22.8242C44.9946 22.3945 44.8709 22.082 44.7147 21.8867C44.5584 21.6914 44.3241 21.5938 44.0116 21.5938C43.2173 21.5938 42.4946 21.8672 41.8436 22.4141C41.2056 22.9609 40.8345 23.6315 40.7303 24.4258ZM54.0636 21.0859L53.8683 21.8672C52.6053 21.3464 51.6222 21.0859 50.9191 21.0859C50.2941 21.0859 49.8514 21.1836 49.5909 21.3789C49.3435 21.5612 49.2198 21.9583 49.2198 22.5703C49.2198 23.0651 49.3956 23.4753 49.7472 23.8008C50.1118 24.1263 50.548 24.3867 51.0558 24.582C51.5636 24.7643 52.0714 24.9661 52.5792 25.1875C53.1001 25.3958 53.5362 25.7083 53.8878 26.125C54.2524 26.5417 54.4347 27.056 54.4347 27.668C54.4347 28.5013 54.1287 29.2305 53.5167 29.8555C52.9047 30.4805 52.1105 30.7995 51.1339 30.8125C50.4178 30.8125 49.7472 30.6628 49.1222 30.3633C48.4972 30.0638 48.0024 29.6862 47.6378 29.2305L48.2042 28.6445C48.3605 28.7096 48.5883 28.8138 48.8878 28.957C49.2003 29.1003 49.4217 29.1979 49.5519 29.25C49.6821 29.2891 49.8709 29.3346 50.1183 29.3867C50.3787 29.4388 50.6521 29.4648 50.9386 29.4648C51.5506 29.4648 52.0519 29.3281 52.4425 29.0547C52.8331 28.7812 53.0284 28.3971 53.0284 27.9023C53.0284 27.5768 52.9373 27.3034 52.755 27.082C52.5727 26.8477 52.3318 26.6589 52.0323 26.5156C51.7329 26.3724 51.4008 26.2357 51.0362 26.1055C50.6847 25.9753 50.3266 25.832 49.962 25.6758C49.6105 25.5065 49.2849 25.3112 48.9855 25.0898C48.686 24.8555 48.4451 24.543 48.2628 24.1523C48.0805 23.7617 47.9894 23.2995 47.9894 22.7656C47.9894 21.9844 48.1977 21.3333 48.6144 20.8125C49.0441 20.2786 49.643 20.0117 50.4112 20.0117C50.7107 20.0117 51.0493 20.0573 51.4269 20.1484C51.8045 20.2396 52.104 20.3242 52.3253 20.4023C52.5467 20.4805 52.8722 20.6107 53.3019 20.793C53.7446 20.9622 53.9985 21.0599 54.0636 21.0859Z" fill="#AF4679"/>
<g clip-path="url(#clip0_334_16537)">
<path fill-rule="evenodd" clip-rule="evenodd" d="M81.81 35.42C81.28 35.24 80.62 35.06 79.9 34.88C77.9 34.37 75.35 33.88 73.81 33.42C73.4681 33.2937 73.1341 33.1468 72.81 32.98L73.25 31.91C73.41 31.47 73.59 30.91 73.78 30.21C74.17 28.84 74.59 27.21 74.86 26.28C75.3048 24.6612 75.6389 23.0141 75.86 21.35C76.19 18.95 76.34 16.52 76.55 14.13L84 15.23C84.54 15.31 85.28 15.36 86 15.48L86.53 15.6L85.81 17.11C85.4935 17.6776 85.2226 18.2694 85 18.88C84.8671 19.2484 84.8671 19.6516 85 20.02C85.1316 20.2794 85.3464 20.4871 85.61 20.61C86.0534 20.7897 86.5226 20.8977 87 20.93C88 21.01 89 20.93 90 21.07C90.2868 21.103 90.5708 21.1565 90.85 21.23V22.07C90.77 23.07 90.58 24.13 90.58 24.13C90.5756 24.2091 90.5999 24.2872 90.6483 24.3499C90.6967 24.4127 90.7661 24.4559 90.8438 24.4716C90.9215 24.4874 91.0022 24.4747 91.0713 24.4359C91.1404 24.397 91.1932 24.3346 91.22 24.26C91.22 24.26 91.53 22.87 91.64 21.79C91.7048 21.3926 91.7048 20.9874 91.64 20.59C91.468 20.2039 91.2533 19.8383 91 19.5C90.49 18.67 89.77 17.68 89.46 17.24C89.15 16.8 88.77 16.12 88.35 15.6C88.1365 15.3361 87.8835 15.1067 87.6 14.92C87.2572 14.7283 86.8858 14.5933 86.5 14.52C85.71 14.3 84.78 14.27 84.14 14.18C83.35 14.09 82.55 14.02 81.75 13.95C79.9 13.79 78.05 13.68 76.2 13.5C75.64 13.43 76.28 13.67 75 21.21C74.7271 22.8177 74.3564 24.4074 73.89 25.97L72.32 31.57C72.1224 31.9796 71.9488 32.4003 71.8 32.83C71.7612 33.0146 71.7612 33.2053 71.8 33.39C71.8546 33.571 71.9715 33.7269 72.13 33.83C72.4005 33.9854 72.6894 34.1063 72.99 34.19C74.88 34.75 79.39 35.36 81.64 36.04C81.7209 36.065 81.8084 36.057 81.8834 36.0176C81.9584 35.9783 82.0147 35.9108 82.04 35.83C82.0522 35.788 82.0558 35.7439 82.0508 35.7005C82.0458 35.657 82.0322 35.615 82.0108 35.5769C81.9894 35.5387 81.9606 35.5052 81.9262 35.4783C81.8917 35.4513 81.8522 35.4315 81.81 35.42ZM87.66 16.5C88.03 16.96 88.37 17.5 88.66 17.84C88.95 18.18 89.73 19.19 90.27 19.98C90.39 20.16 90.5 20.32 90.59 20.47L90.13 20.36C89.13 20.14 88.13 20.1 87.13 19.92C86.8801 19.8873 86.6329 19.8372 86.39 19.77C86.25 19.77 86.09 19.71 86.04 19.6C86.0029 19.3769 86.0306 19.1478 86.12 18.94C86.27 18.36 86.51 17.74 86.6 17.44L87.12 15.9C87.3305 16.0703 87.5127 16.2728 87.66 16.5Z" fill="#AF4679"/>
<path fill-rule="evenodd" clip-rule="evenodd" d="M93.08 27.05C92.7063 26.6801 92.2547 26.3984 91.7582 26.2254C91.2616 26.0524 90.7327 25.9925 90.21 26.05C89.3143 26.1894 88.4832 26.6014 87.83 27.23C86.9494 28.1157 86.1681 29.0948 85.5 30.15C85.1361 30.6394 84.8022 31.1503 84.5 31.68C84.2937 32.0519 84.1261 32.4439 84 32.85C83.7267 33.6873 83.6921 34.5842 83.9 35.44C84.0829 36.0653 84.4702 36.6111 85 36.99C85.3148 37.2536 85.6974 37.4234 86.1041 37.48C86.5108 37.5366 86.9252 37.4777 87.3 37.31C88.61 36.74 89.66 34.82 90.37 33.85L91.27 32.5C91.4939 32.1283 91.675 31.7325 91.81 31.32C91.9156 31.0237 91.9796 30.714 92 30.4C92.0296 30.0939 91.9674 29.7859 91.8213 29.5153C91.6753 29.2446 91.4521 29.0235 91.18 28.88C90.9138 28.7538 90.6197 28.6976 90.3257 28.7169C90.0317 28.7361 89.7475 28.8302 89.5 28.99C89.1915 29.1872 88.9206 29.4378 88.7 29.73C88.3999 30.1285 88.126 30.5461 87.88 30.98C87.7 31.27 87.54 31.57 87.37 31.87C87.2 32.17 86.93 32.78 86.71 33.24C86.6931 33.2734 86.683 33.3099 86.6803 33.3472C86.6777 33.3846 86.6826 33.4221 86.6947 33.4575C86.7068 33.493 86.7259 33.5256 86.7509 33.5535C86.7759 33.5814 86.8062 33.6041 86.84 33.62C86.8734 33.637 86.9099 33.6471 86.9472 33.6497C86.9846 33.6524 87.0221 33.6475 87.0575 33.6354C87.0929 33.6232 87.1256 33.6041 87.1535 33.5792C87.1814 33.5542 87.204 33.5239 87.22 33.49C87.45 33.05 87.67 32.6 87.92 32.17C88.17 31.74 88.24 31.6 88.42 31.33C88.6689 30.9291 88.9393 30.5418 89.23 30.17C89.4109 29.9548 89.6274 29.7721 89.87 29.63C90.0101 29.5403 90.1703 29.4869 90.3362 29.4747C90.502 29.4624 90.6683 29.4918 90.82 29.56C90.9487 29.6489 91.0504 29.7715 91.114 29.9144C91.1775 30.0573 91.2003 30.215 91.18 30.37C91.148 30.655 91.0774 30.9342 90.97 31.2C90.8508 31.479 90.7069 31.7467 90.54 32L89.62 33.27C88.9865 34.3025 88.2162 35.2443 87.33 36.07C87.098 36.2746 86.7993 36.3875 86.49 36.3875C86.1807 36.3875 85.882 36.2746 85.65 36.07C85.2565 35.7528 85.0048 35.2925 84.95 34.79C84.8782 34.239 84.9294 33.6789 85.1 33.15C85.2077 32.8041 85.3484 32.4692 85.52 32.15C85.7872 31.6556 86.0844 31.1781 86.41 30.72C87.0072 29.7082 87.7149 28.7658 88.52 27.91C89.0235 27.3947 89.6725 27.0458 90.38 26.91C90.7687 26.8581 91.164 26.893 91.5376 27.0123C91.9111 27.1317 92.2535 27.3324 92.54 27.6C92.8485 27.8615 93.0973 28.186 93.2698 28.5516C93.4423 28.9173 93.5345 29.3158 93.54 29.72C93.501 30.3317 93.3625 30.9329 93.13 31.5C92.8118 32.3231 92.4342 33.1218 92 33.89C91.9576 33.967 91.9474 34.0576 91.9718 34.142C91.9962 34.2264 92.0531 34.2976 92.13 34.34C92.2069 34.3825 92.2976 34.3926 92.3819 34.3682C92.4663 34.3439 92.5376 34.287 92.58 34.21C93.0588 33.406 93.4831 32.5708 93.85 31.71C94.095 31.107 94.2435 30.4692 94.29 29.82C94.2985 29.2986 94.1949 28.7814 93.9861 28.3035C93.7774 27.8256 93.4684 27.3981 93.08 27.05Z" fill="#AF4679"/>
</g>
<defs>
<clipPath id="clip0_334_16537">
<rect width="24" height="24" fill="white" transform="translate(71 13.5)"/>
</clipPath>
</defs>
</svg>
